<svg aria-hidden="true" style="width:0;height:0;position:absolute;overflow:hidden" xmlns="http://www.w3.org/2000/svg"><defs><symbol id="icon-arrow-right" viewBox="0 0 32 32"><path d="M6.666 16h18.668M16 25.334 25.332 16 16 6.666"/></symbol><symbol id="icon-arrow-left" viewBox="0 0 32 32"><path d="M25.334 16H6.666M16 25.334 6.666 16 16 6.666"/></symbol><symbol id="icon-search" viewBox="0 0 16 16"><path d="M7.333 12.667A5.333 5.333 0 1 0 7.333 2a5.333 5.333 0 0 0 0 10.667ZM14 14l-2.9-2.9" fill="none" stroke-linecap="round" stroke-linejoin="round"/></symbol><symbol id="icon-logo" viewBox="0 0 32 32"><path fill="none" stroke-linejoin="round" stroke-linecap="round" stroke-width="2" d="M26.427 2.667H5.573a2.907 2.907 0 0 0-2.907 2.906v20.854a2.907 2.907 0 0 0 2.907 2.906h20.854a2.907 2.907 0 0 0 2.906-2.906V5.573a2.907 2.907 0 0 0-2.906-2.906zm-17.093 0v26.666M22.666 2.667v26.666M2.667 16h26.666M2.667 9.333h6.666M2.667 22.667h6.666m13.333 0h6.667M22.666 9.333h6.667"/></symbol><symbol id="icon-close" viewBox="0 0 32 32"><path d="m8.533 8.533 14.933 14.933m-14.933.001L23.466 8.534"/></symbol><symbol id="icon-sun" viewBox="0 0 24 24"><path d="M12 6.934 13 4a1.055 1.055 0 1 0-2 0l1 2.934zM4 11a1.055 1.055 0 1 0 0 2l2.934-1L4 11zm8 6.066L11 20a1.055 1.055 0 1 0 2 0l-1-2.934zm9.341-5.409A1.055 1.055 0 0 0 20 10.998l-2.934 1 2.934 1a1.057 1.057 0 0 0 1.341-1.341zM5.636 7.05l2.781 1.367L7.05 5.636A1.057 1.057 0 1 0 5.636 7.05zm-.483 10.382a1.057 1.057 0 0 0 1.896.932l1.367-2.781-2.781 1.367a1.056 1.056 0 0 0-.482.482zm13.21-.483-2.781-1.367 1.367 2.781a1.056 1.056 0 1 0 1.414-1.414zm.481-10.383a1.057 1.057 0 0 0-1.895-.933L15.58 8.416l2.782-1.368c.202-.1.375-.264.482-.482zM12 7.5c-2.481 0-4.5 2.019-4.5 4.5s2.019 4.5 4.5 4.5 4.5-2.019 4.5-4.5-2.019-4.5-4.5-4.5z"/></symbol><symbol id="icon-moon" viewBox="0 0 32 32"><path d="M18.214 11.762 17 15l-1.214-3.238L13.5 11l2.286-.762L17 7l1.214 3.238L20.5 11l-2.286.762zm4 6.476L21 15l-1.214 3.238L17.5 19l2.286.762L21 23l1.214-3.238L24.5 19l-2.286-.762zm-7.378 4.093a5.501 5.501 0 1 1-5.582-6.832 4.5 4.5 0 0 0 5.741 5.741c-.016.375-.07.739-.158 1.091zm12.031-9.902L28.5 13l-1.633.571L26 16l-.867-2.429L23.5 13l1.633-.571L26 10l.867 2.429z"/></symbol><symbol id="icon-github" viewBox="0 0 32 32"><path fill="$blackColor" d="M16 .395c-8.836 0-16 7.163-16 16 0 7.069 4.585 13.067 10.942 15.182.8.148 1.094-.347 1.094-.77 0-.381-.015-1.642-.022-2.979-4.452.968-5.391-1.888-5.391-1.888-.728-1.849-1.776-2.341-1.776-2.341-1.452-.993.11-.973.11-.973 1.606.113 2.452 1.649 2.452 1.649 1.427 2.446 3.743 1.739 4.656 1.33.143-1.034.558-1.74 1.016-2.14-3.554-.404-7.29-1.777-7.29-7.907 0-1.747.625-3.174 1.649-4.295-.166-.403-.714-2.03.155-4.234 0 0 1.344-.43 4.401 1.64a15.353 15.353 0 0 1 4.005-.539c1.359.006 2.729.184 4.008.539 3.054-2.07 4.395-1.64 4.395-1.64.871 2.204.323 3.831.157 4.234 1.026 1.12 1.647 2.548 1.647 4.295 0 6.145-3.743 7.498-7.306 7.895.574.497 1.085 1.47 1.085 2.963 0 2.141-.019 3.864-.019 4.391 0 .426.288.925 1.099.768C27.421 29.457 32 23.462 32 16.395c0-8.837-7.164-16-16-16z"/></symbol></defs></svg>