<svg aria-hidden="true" style="width:0;height:0;position:absolute;overflow:hidden" xmlns="http://www.w3.org/2000/svg"><defs><symbol id="icon-uk" viewBox="0 0 32 32"><path fill="#fff" style="fill:var(--color1,#fff)" d="M18.713 4.289V2.403l.608.132c1.532.333 1.45.167 1.45 2.943 0 1.608-.075 2.569-.212 2.706-.125.125-.151.351-.064.552.081.187.132.441.112.565s.084.512.231.864c.31.743.207.97-.441.97-.364 0-.48.107-.524.484-.125 1.079.987 1.101 1.499.029.337-.707 1.047-.764 1.723-.137.582.539.882.472.515-.115-.214-.342-.202-.359.126-.184.199.106.415.406.48.666.141.562.486.632.486.098 0-.461.342-.493.507-.047.167.451.431.602 1.06.605.457.002.502.045.305.284-.173.208-.632.281-1.772.281-1.301 0-1.591-.058-1.878-.374-.186-.206-.571-.374-.856-.374s-.91.168-1.39.374c-.48.206-1.119.374-1.419.374h-.546v-2.983c0-1.787.075-3.03.187-3.099.103-.064.187-.279.187-.479s-.084-.363-.187-.363c-.112 0-.187-.753-.187-1.886zm-7.204-1.311c.515-.181.957-.336.982-.343s.047 1.175.047 2.628c0 2.092-.049 2.603-.234 2.451-.129-.106-.487-.221-.795-.257-.543-.063-.56-.042-.508.637.032.418-.03.702-.153.702s-.16.17-.091.421c.097.356.084.371-.086.101-.127-.202-.182-1.371-.149-3.165l.052-2.846.936-.329zM5.503 4.146c.133-.216.298-.29.298-.134 0 .045-.097.143-.216.216-.134.083-.165.051-.082-.082zm22.099.907c-.402-.412-.689-.749-.637-.749s.423.337.825.749c.402.412.689.749.637.749s-.423-.337-.825-.749zm-7.784 4.045c-.217.262-.203.293.102.234.194-.038.388-.173.431-.302.111-.334-.236-.289-.533.068zm-7.561 1.007c.064-.103.153-.187.198-.187s.083.084.083.187-.089.187-.198.187-.146-.084-.083-.187zm16.325.744c.277-.394.334-.414.388-.135.035.18.215.328.401.328s.45.136.588.302c.214.258.192.35-.156.632-.224.181-.348.394-.275.472s.048.107-.055.064c-1.291-.541-1.459-.854-.892-1.662zm-16.532.462c.217-.248.415-.452.441-.453s.047.502.047 1.119V13.1h-1.672l.395-.669c.217-.368.572-.872.789-1.119zm13.593-.277c.604-.382 1.866-.109 1.866.404 0 .181-1.804.108-1.992-.081-.082-.082-.025-.227.126-.323zm-22.524.132c.215-.215.437-.136.437.156a.282.282 0 0 1-.281.281c-.292 0-.371-.221-.156-.437zm19.212.561c.069.069.181.069.25 0s.012-.125-.125-.125-.193.056-.125.125zm-19.711.811c0-.137.056-.193.125-.125s.068.181 0 .25c-.069.069-.125.012-.125-.125zm.799.504c-.182-.048-.078-.089.23-.093s.458.035.331.086c-.127.051-.379.054-.561.007zm-3.232 1.18c0-.137.056-.193.125-.125s.069.181 0 .25-.125.012-.125-.125zm2.433 5.023c0-.087 1.863-.157 4.14-.157 3.288 0 4.101.048 3.951.234-.295.365-.219 1.287.167 2.006.193.36.351.735.351.834s.227.417.504.706l.504.526-.219 1.542c-.255 1.789-.633 3.947-.709 4.039-.029.035-.227.008-.441-.059-.374-.119-.388-.247-.388-3.479 0-1.846-.043-3.356-.096-3.356s-1.208.557-2.566 1.237c-2.432 1.219-2.881 1.317-3.094.675-.039-.117 1.093-.801 2.515-1.521l2.586-1.308-2.205-.01c-1.998-.009-2.293.035-3.138.463l-.932.472-.207-.519c-.276-.691-.723-2.13-.723-2.327zm16.093 5.176v-5.333h3.743v.474c0 .261.133.677.296.925.226.346.265.692.167 1.483l-.129 1.032-.909-.461c-.5-.253-.954-.461-1.009-.461s-.1 1.597-.1 3.548v3.548l-.97.288c-.533.159-.996.288-1.029.288s-.059-2.4-.059-5.333zm9.111-4.808c-.292.304-.503.737-.503 1.029 0 .48.045.504.928.504h.929l.288-.97c.159-.533.288-.996.288-1.029s-.321-.059-.714-.059c-.537 0-.838.13-1.216.525zm-7.567.547c-.614.111-.594 1.102.028 1.386.886.404 2.22-.45 1.606-1.028-.327-.308-1.044-.465-1.634-.358zm7.124 2.249c-.064.18-.226.456-.36.613-.328.384-.561 1.866-.295 1.866.275 0 1.156-1.181 1.156-1.548 0-.163.128-.425.285-.582.255-.255.247-.306-.081-.481-.494-.264-.571-.25-.706.131zM4.678 27.228c.349.36.677.655.728.655s-.192-.295-.541-.655c-.349-.36-.677-.655-.728-.655s.192.295.541.655z"/><path style="fill:var(--color2,#000)" d="M14.071.388c1.785-.232 2.522-.222 4.362.059 3.364.514 6.048 1.815 8.448 4.094 1.701 1.616 2.432 2.595 3.432 4.599 1.149 2.303 1.535 3.975 1.561 6.766.026 2.757-.304 4.359-1.375 6.676-1.595 3.453-4.072 6.029-7.394 7.694-4.551 2.28-10.41 2.064-14.936-.552-1.611-.931-4.601-3.878-5.521-5.442C1.061 21.584.481 19.391.482 16.093c.001-3.003.295-4.356 1.484-6.83C4.314 4.373 8.821 1.069 14.072.388zm1.18 1.802c-1.828.175-3.83.667-4.866 1.196-1.493.763-3.38 2.119-3.322 2.387.026.118-.085.215-.245.215s-.24.084-.176.187c.197.319.933.206 1.216-.187.279-.387.936-.518.936-.187 0 .103.126.187.281.187s.281.084.281.187.084.187.187.187.187-.126.187-.281c0-.154.126-.281.281-.281.156 0 .281.166.281.374 0 .206-.095.374-.21.374-.145 0-.138.087.023.281.194.234.168.281-.158.281-.26 0-.357-.089-.29-.264.081-.212-.03-.203-.568.047-.526.244-.659.406-.622.759.049.464.13.528 1.31 1.041.386.168.702.427.702.577s.117.272.26.272c.289 0 .532-.982.405-1.637-.064-.33.004-.421.314-.421.217 0 .548.138.734.306s.493.316.681.328c.333.021 1.654 1.005 1.513 1.127-.296.255-.979.485-1.439.485-.552 0-1.137.457-.895.699.071.071.283.033.47-.085.254-.159.396-.159.553-.002.339.339.244.546-.187.409-.31-.098-.538.031-1.029.583-.347.39-.631.781-.631.87s-.179.403-.398.7c-.28.38-.362.682-.277 1.022.067.266.045.483-.048.483s-.214-.173-.269-.383c-.088-.338-.211-.373-1.045-.296-.52.048-1.032.142-1.138.207-.318.197-.219 1.334.157 1.798.33.407.369.414.668.114.435-.435.729-.412.489.037-.138.257-.122.411.057.56.136.113.287.166.334.118s.19.196.315.542c.164.453.37.657.738.729.28.054.54.016.577-.085.108-.299.949-.542 1.296-.375.177.085.574.293.883.461s.797.403 1.085.52c.335.136.56.393.623.711.125.626 1.045 1.187 1.683 1.027 1.029-.258 1.618 1.139.726 1.724-.257.169-.468.453-.468.631 0 .699-.412 1.429-1.033 1.833-.358.233-.651.572-.651.754s-.147.47-.328.64c-.51.481-.795.864-.795 1.066 0 .102-.226.295-.501.429-.57.278-1.149 1.163-1.169 1.788-.008.232-.119.43-.248.44s.271.133.889.273c1.357.306 3.862.338 5.52.07 1.433-.231 3.904-1.353 5.506-2.499 1.478-1.057 3.224-2.901 3.598-3.798.162-.39.351-.751.42-.802.279-.209 1.32-2.765 1.411-3.462.238-1.833.34-3.088.251-3.088-.054 0-.489.219-.967.486s-.996.438-1.151.379c-.231-.089-.244-.04-.074.279.155.289.321.358.659.273.902-.226.449.912-.798 2.007-.591.519-.612.585-.57 1.811.034.991-.029 1.353-.284 1.635-.18.199-.378.739-.441 1.199-.149 1.084-.885 1.977-1.759 2.131l-.655.116-.468-1.181c-.375-.946-.47-1.527-.481-2.916-.008-1.065-.099-1.82-.234-1.956-.121-.121-.221-.493-.221-.827 0-.773-.195-.882-1.629-.915-1.297-.029-1.702-.267-2.185-1.284-.368-.776-.24-2.117.261-2.733.209-.258.467-.69.574-.961.14-.357.48-.602 1.229-.889 1.301-.498 1.3-.498 1.857.104.376.406.647.506 1.441.534 1.483.052 1.78.209 2.288 1.212.505.996.988 1.481.618.62a7.24 7.24 0 0 0-.545-.998c-.277-.41-.284-.519-.056-.831.485-.663.337-1.037-.41-1.037-.515 0-.695-.088-.77-.374-.108-.412-.715-.511-.868-.14-.06.145-.143.083-.219-.164-.067-.219-.33-.493-.583-.608-.606-.276-.639-.268-.503.118.094.267.069.284-.137.094-.139-.129-.555-.234-.926-.234-.602 0-.699.071-.914.666-.188.521-.329.653-.646.608-.284-.04-.423-.211-.464-.572-.053-.459.001-.515.495-.515.591 0 .884-.384.548-.72-.147-.147-.117-.237.108-.324.172-.066.312-.239.312-.384s.211-.361.469-.479c.261-.119.448-.345.421-.511-.03-.186.077-.287.286-.27.482.039.042-.454-.473-.531-.549-.081-.621-.467-.117-.627.231-.073.677-.405.993-.738.433-.457.802-.638 1.508-.743l.935-.139-.561-.456c-1.849-1.505-4.744-2.779-6.736-2.964-.72-.067-1.52-.145-1.778-.174s-.805-.02-1.216.019zm2.037 4.257c-.166.434.092.664.745.664.68 0 1.076-.29.927-.678-.137-.357-1.534-.346-1.672.014zm3.37 2.27c.063.163.114.415.114.561s.126.265.281.265c.344 0 .353-.357.02-.795-.31-.408-.566-.428-.415-.031zm-.746.482c-.083.134-.051.165.082.082.119-.073.216-.17.216-.216 0-.156-.165-.082-.298.134zM3.028 11.238c-.581 1.261-.843 3.334-.731 5.791.167 3.657 1.212 5.944 3.976 8.702 1.612 1.608 4.056 3.274 4.904 3.342.34.027.52-.732 1.004-4.251.2-1.451.196-1.477-.282-1.975-.266-.278-.484-.586-.484-.685s-.156-.473-.347-.832c-.408-.768-.482-1.85-.135-1.983.167-.064.204-.279.118-.691-.098-.472-.208-.586-.52-.542-.277.039-.498-.118-.739-.527-.346-.588-.851-.901-2.204-1.364-.406-.139-.792-.372-.859-.518-.461-1.012-.677-1.368-.869-1.431-.139-.046-.183.068-.119.313.055.212.051.385-.011.385-.15 0-.867-1.419-.871-1.723-.002-.133-.209-.437-.461-.675s-.575-.828-.719-1.31l-.262-.876-.393.852zm22.536-.357c-.44.514-.229.674.991.751 1.13.072 1.442-.206.731-.65-.789-.493-1.358-.526-1.722-.101zm2.798.015c-.454.647-.354 1.034.354 1.37.614.291.664.288 1.046-.068.475-.443.421-1.03-.103-1.128-.205-.038-.44-.187-.522-.33-.212-.369-.44-.323-.775.156zM5.053 13.544c0 .039.128.177.285.307.238.198.266.186.167-.071-.101-.262-.452-.446-.452-.236zm24.265.616c-.069.069-.125.279-.125.468 0 .432.712.468.875.043.153-.4-.451-.811-.75-.511zM10.76 15.345c.064.103.258.186.432.184.273-.003.278-.028.036-.184-.366-.237-.614-.237-.468 0z"/><path fill="#012169" style="fill:var(--color3,#012169)" d="M14.55.311c.129.052.339.052.468 0s.023-.094-.234-.094-.362.042-.234.094zm2.819.004c.135.054.296.047.359-.015s-.048-.106-.246-.098c-.218.009-.262.053-.113.113zm-4.207.184c.069.069.181.069.25 0s.012-.125-.125-.125-.193.056-.125.125zm5.614 0c.069.069.181.069.25 0s.012-.125-.125-.125-.193.056-.125.125zm1.684.374c.069.069.181.069.25 0s.012-.125-.125-.125-.193.056-.125.125zm1.123.375c.069.069.181.069.25 0s.012-.125-.125-.125-.193.056-.125.125zM7.935 2.462c-.083.134-.051.165.082.082.216-.133.29-.298.134-.298-.045 0-.143.097-.216.216zm11.402.096c.069.068.181.068.25 0s.012-.125-.125-.125-.193.056-.125.125zm-11.963.278c-.083.134-.051.165.082.082.119-.073.216-.17.216-.216 0-.156-.165-.082-.298.134zm13.361 2.715c.038 1.787-.009 2.683-.14 2.683-.108 0-.197.096-.197.213s-.139.315-.309.439c-.258.189-.266.251-.047.378.144.084.206.089.137.013s.043-.307.249-.513c.361-.361.383-.362.633-.031.143.188.262.448.266.577.008.304-.491.304-.635 0-.061-.129-.061.019 0 .327.127.651.282.849.402.514.046-.129.161-.188.255-.129s.171-.027.171-.19.211-.392.469-.51c.261-.119.448-.345.421-.511-.03-.186.077-.287.286-.27.482.039.042-.454-.473-.531-.549-.081-.621-.467-.117-.627.231-.073.677-.405.993-.738.425-.448.805-.639 1.466-.737.491-.073.847-.206.792-.295-.192-.311-2.625-1.838-3.649-2.291l-1.029-.455.056 2.683zM6.813 3.21c-.083.134-.051.165.082.082.216-.133.29-.298.134-.298-.045 0-.143.097-.216.216zm4.103-.091c.069.068.181.068.25 0s.012-.125-.125-.125-.193.056-.125.125zm-1.559.837C7.647 5.015 6.9 5.61 7.025 5.813c.059.096-.028.175-.195.175s-.251.084-.187.187c.197.319.933.206 1.216-.187.279-.387.936-.518.936-.187 0 .103.126.187.281.187s.281.084.281.187.084.187.187.187.187-.126.187-.281c0-.154.126-.281.281-.281.156 0 .281.166.281.374 0 .206-.095.374-.21.374-.145 0-.138.087.023.281.194.234.168.281-.158.281-.26 0-.357-.089-.29-.264.081-.212-.03-.203-.568.047-.526.244-.659.406-.622.759.047.449.12.509 1.17.971.309.136.62.274.693.308s.156-1.247.187-2.845l.056-2.895c0 .006-.547.35-1.216.764zm16.187-.588c.064.103.158.187.209.187s.042-.084-.022-.187-.158-.187-.209-.187-.042.084.022.187zM5.787 4.07l-.454.515.515-.454c.481-.424.601-.576.454-.576-.034 0-.265.232-.515.515zm21.624.983c.816.875 1.565 1.675 1.663 1.778s.004-.066-.211-.374c-.215-.309-.963-1.109-1.663-1.778l-1.273-1.216 1.484 1.591zM4.754 4.912l-.356.421.421-.356c.232-.196.421-.386.421-.421 0-.15-.151-.039-.486.356zM3.572 6.316c-.46.673-.488.752-.116.327.495-.565.92-1.216.792-1.216-.038 0-.342.4-.676.889zm15.217.637c-.083.134-.051.165.082.082.119-.073.216-.17.216-.216 0-.156-.165-.082-.298.134zm10.498.345c.064.103.158.187.209.187s.042-.084-.022-.187-.158-.187-.209-.187-.042.084.022.187zm-26.712.421c-.417.639-1.112 2.04-1.044 2.107.033.033.372-.523.752-1.235.687-1.284.82-1.681.292-.873zm9.402-.163c0 .039.147.186.328.327.297.233.303.226.071-.071-.245-.312-.398-.411-.398-.257zm-1.022.291c-.059.096-.036.218.051.272s.159-.024.159-.174c0-.316-.059-.343-.21-.098zm18.893.387c.16.309.332.561.384.561s-.037-.253-.197-.561c-.16-.309-.332-.561-.384-.561s.037.253.197.561zm-18.965.936c0 .257.042.363.094.234s.052-.339 0-.468-.094-.023-.094.234zm19.448-.094c0 .103.161.482.359.842s.359.571.359.468c0-.103-.161-.482-.359-.842s-.359-.571-.359-.468zm-18.171.94c-.13.157-.2.322-.156.366s.183-.084.309-.285c.272-.435.181-.483-.153-.081zm-10.92.377c-.181.47-.127.592.093.213.109-.188.159-.381.111-.429s-.14.049-.204.216zm10.9.601c-.233.297-.226.303.071.071.312-.245.411-.398.257-.398-.039 0-.186.147-.328.328zm14.199-.203c.129.052.339.052.468 0s.023-.094-.234-.094-.362.042-.234.094zm1.918.25c-.11.206-.158.374-.107.374s.184-.168.294-.374c.11-.206.158-.374.107-.374s-.184.168-.294.374zm.749-.187c0 .137.056.193.125.125s.069-.181 0-.25-.125-.012-.125.125zm2.058 0c0 .137.056.193.125.125s.069-.181 0-.25-.125-.012-.125.125zm-3.763.225c.132.176.178.428.103.561-.11.195-.088.196.116.007.212-.197.195-.289-.103-.561-.321-.294-.332-.294-.116-.007zm-26.446.443c-.069.274-.089.535-.045.579s.137-.144.205-.418c.069-.274.089-.535.045-.579s-.137.144-.205.418zm2.715-.185c.009.218.053.262.113.113.054-.135.047-.297-.015-.359s-.106.048-.098.246zm16.391-.171c-.176.176-.155.957.028 1.071.084.052.118-.147.075-.441-.065-.444-.003-.55.361-.62.387-.074.393-.087.05-.109-.214-.014-.446.031-.515.099zm1.372.062c0 .137.056.193.125.125s.069-.181 0-.25-.125-.012-.125.125zm1.404 0c.064.103.158.187.209.187s.042-.084-.022-.187-.158-.187-.209-.187-.042.084.022.187zm2.526-.011c0 .097.083.228.185.29.106.066.137-.01.074-.176-.124-.324-.259-.383-.259-.114zm-2.058.162c0 .098.126.282.281.411s.281.175.281.103-.126-.256-.281-.411-.281-.201-.281-.103zm8.046.036c0 .137.056.193.125.125s.069-.181 0-.25-.125-.012-.125.125zm-28.444.187c0 .137.056.193.125.125s.068-.181 0-.25c-.069-.069-.125-.012-.125.125zm23.641-.062c.069.069.181.069.25 0s.012-.125-.125-.125-.193.056-.125.125zm-5.383.382c-.101.267-.08.288.105.105.128-.127.185-.278.128-.336s-.162.046-.233.231zm1.266-.195c.069.069.181.069.25 0s.012-.125-.125-.125-.193.056-.125.125zm2.198.027c-.009.145-.11.188-.249.104-.141-.085-.125-.007.04.197.28.345.497.132.318-.312-.073-.18-.098-.177-.109.011zm3.635.223c.064.103.158.187.209.187s.042-.084-.022-.187-.158-.187-.209-.187-.042.084.022.187zm3.289.109c.009.218.053.262.113.113.054-.135.047-.297-.015-.359s-.106.048-.098.246zm-28.833.078c0 .137.056.193.125.125s.068-.181 0-.25c-.069-.069-.125-.012-.125.125zm8.608 0c0 .137.056.193.125.125s.069-.181 0-.25-.125-.012-.125.125zm-7.183.239c.064.183.296.425.515.537.342.175.36.168.127-.052a8.68 8.68 0 0 1-.515-.537c-.211-.244-.228-.238-.127.052zm24.867-.052c.064.103.158.187.209.187s.042-.084-.022-.187-.158-.187-.209-.187-.042.084.022.187zm-28.321.374c0 .257.042.363.094.234s.052-.339 0-.468-.094-.023-.094.234zm22.005-.031c.18.189.361.317.401.285.11-.087-.376-.628-.564-.628-.09 0-.017.154.163.343zm3.478-.218c.069.069.181.069.25 0s.012-.125-.125-.125-.193.056-.125.125zm-15.144.278c-.083.134-.051.165.082.082.119-.073.216-.17.216-.216 0-.156-.165-.082-.298.134zm20.725.158c0 .257.042.363.094.234s.052-.339 0-.468-.094-.023-.094.234zm-29.222 0c0 .137.056.193.125.125s.068-.181 0-.25c-.069-.069-.125-.012-.125.125zm18.027-.062c.069.069.181.069.25 0s.012-.125-.125-.125-.193.056-.125.125zm6.113.062c0 .137.056.193.125.125s.069-.181 0-.25-.125-.012-.125.125zm-26.155.936c0 .36.039.508.086.328s.047-.475 0-.655c-.047-.18-.086-.033-.086.328zm31.446.374c0 .463.037.653.081.421s.045-.611 0-.842c-.045-.232-.081-.042-.081.421zM.198 16.016c.006.815.078 1.818.16 2.23.092.458.114-.086.057-1.404-.107-2.499-.233-2.978-.217-.827zm31.666 1.949c0 .463.037.653.081.421s.045-.611 0-.842c-.045-.232-.081-.042-.081.421zm-.397 1.9c-.122.53-.188.997-.147 1.039s.179-.355.305-.88.192-.993.147-1.039c-.045-.045-.183.351-.305.88zM.591 19.462c0 .257.042.363.094.234s.052-.339 0-.468-.094-.023-.094.234zm1.842-.187c0 .137.056.193.125.125s.068-.181 0-.25c-.069-.069-.125-.012-.125.125zm8.329-.002c-.066.106.01.137.176.074.324-.124.383-.259.114-.259-.097 0-.228.083-.29.185zm16.855.361c-.288.3-.479.658-.424.795.077.194.103.189.114-.022.008-.149.241-.507.518-.795s.461-.525.409-.525-.329.246-.617.546zm-5.146.124c.009.218.053.262.113.113.054-.135.047-.297-.015-.359s-.106.048-.098.246zm-11.991.067c0 .097.083.228.185.29.106.066.137-.01.074-.176-.124-.324-.259-.383-.259-.114zm19.087.011c0 .137.056.193.125.125s.069-.181 0-.25-.125-.012-.125.125zm-26.947.187c0 .137.056.193.125.125s.068-.181 0-.25c-.069-.069-.125-.012-.125.125zm-1.858.107c-.019.283.575 1.987.662 1.9.04-.04-.09-.528-.288-1.086S.77 20.02.762 20.13zm21.975.268c.064.103.158.187.209.187s.042-.084-.022-.187-.158-.187-.209-.187-.042.084.022.187zm6.643 0c0 .137.056.193.125.125s.069-.181 0-.25-.125-.012-.125.125zm-26.573.187c0 .137.056.193.125.125s.068-.181 0-.25c-.069-.069-.125-.012-.125.125zm7.673-.011c0 .097.083.228.185.29.106.066.137-.01.074-.176-.124-.324-.259-.383-.259-.114zm12.567.759c0 .257.042.363.094.234s.052-.339 0-.468-.094-.023-.094.234zm-12.088.055c.07.184.175.288.233.231s0-.208-.128-.336c-.185-.183-.206-.162-.105.105zm20.035.046c-.181.47-.127.592.093.213.109-.188.159-.381.111-.429s-.14.049-.204.216zm-19.751.672c-.008.168.133.42.313.561.285.223.3.22.119-.024a2.77 2.77 0 0 1-.313-.561c-.087-.235-.106-.231-.119.024zm11.613.307-.026.611-.93-.471c-.511-.259-.971-.471-1.022-.471s-.117 1.625-.147 3.611l-.054 3.611 1.31-.636a16.066 16.066 0 0 0 4.585-3.336c.566-.598.854-.942.64-.765-.522.431-.602.409-.693-.193l-.078-.515-.033.561c-.047.79-.904 1.731-1.707 1.872l-.655.116-.45-1.136c-.247-.624-.509-1.661-.583-2.304s-.144-.894-.159-.557zm-15.082.916c-2.108 1.067-2.475 1.198-2.807.999-.617-.369 1.97 2.212 2.893 2.886.463.338 1.242.846 1.731 1.128l.889.513v-3.386c0-1.862-.063-3.382-.14-3.376s-1.232.562-2.565 1.237zm22.618-.458c-.6 1.335-1.746 2.973-3.042 4.353-1.226 1.305-1.227 1.307-.147.285.598-.566 1.449-1.535 1.891-2.152.838-1.172 1.865-3.069 1.732-3.202-.042-.042-.237.28-.434.716zm-28.895-.532c0 .202.743 1.614.85 1.614.051 0-.087-.358-.308-.795-.434-.86-.542-1.024-.542-.819zm25.652.141c-.008.168-.141.409-.296.537s-.281.318-.281.422c0 .104.175-.033.389-.305s.347-.599.296-.727c-.059-.146-.099-.119-.109.073zm.851.451c-.064.167-.111.402-.105.523s.093.017.191-.23c.099-.247.146-.482.105-.523s-.127.062-.191.23zm-15.793.835c0 .36.039.508.086.328s.047-.475 0-.655c-.047-.18-.086-.033-.086.328zm-9.457.968c.186.326 1.054 1.322 1.929 2.214 1.247 1.271 1.304 1.315.264.202-.73-.78-1.562-1.776-1.849-2.214-.611-.93-.832-1.061-.343-.202zm9.27.716c0 .36.039.508.086.328s.047-.475 0-.655c-.047-.18-.086-.033-.086.328zm-.374 1.872c0 .36.039.508.086.328s.047-.475 0-.655c-.047-.18-.086-.033-.086.328zm-.209 1.154c-.012.274-.127.541-.256.593-.183.074-.182.098.006.109.297.018.476-.412.359-.863-.059-.228-.095-.176-.109.161zm14.176.296c-.233.297-.226.303.071.071.312-.245.411-.398.257-.398-.039 0-.186.147-.328.328zm-18.97.047c.064.103.158.187.209.187s.042-.084-.022-.187-.158-.187-.209-.187-.042.084.022.187zm18.322.403c-.083.134-.051.165.082.082.119-.073.216-.17.216-.216 0-.156-.165-.082-.298.134zm-.562.374c-.083.134-.051.165.082.082.119-.073.216-.17.216-.216 0-.156-.165-.082-.298.134zm-5.253.096c.069.069.181.069.25 0s.012-.125-.125-.125-.193.056-.125.125zm-10.448.437c.064.103.158.187.209.187s.042-.084-.022-.187-.158-.187-.209-.187-.042.084.022.187zm2.401 1.06c.069.069.181.069.25 0s.012-.125-.125-.125-.193.056-.125.125zm2.246.562c.069.069.181.069.25 0s.012-.125-.125-.125-.193.056-.125.125zm5.24 0c.069.069.181.069.25 0s.012-.125-.125-.125-.193.056-.125.125zm-3.384.191c.18.047.475.047.655 0s.033-.086-.328-.086-.508.039-.328.086zm1.31 0c.18.047.475.047.655 0s.033-.086-.328-.086-.508.039-.328.086z"/><path fill="#c8102e" style="fill:var(--color4,#c8102e)" d="M17.84.312c-.069-.069-.012-.125.125-.125s.193.056.125.125a.177.177 0 0 1-.25 0zm-2.589 1.884c.794-.064 2.34.017 3.041.159.403.081.421.166.421 1.942v1.856l-.702.058c-.558.046-.702.135-.702.432s.144.386.702.432l.702.058v5.966h.574c.508 0 .56.048.446.421-.07.232-.288.597-.485.812-.468.513-.733 1.472-.63 2.279.076.591.866 1.887 1.18 1.934.072.011.636.035 1.254.054 1.257.039 1.597.176 1.575.639-.009.195-.051.227-.109.083-.067-.165-.641-.234-1.95-.234h-1.856V29.71l-.421.113c-.697.187-3.563.132-4.664-.089-.976-.196-1.026-.233-.937-.702.151-.794.677-1.599 1.217-1.862.275-.134.501-.327.501-.429 0-.202.286-.585.795-1.066.18-.17.328-.458.328-.64s.293-.521.651-.754c.622-.404 1.033-1.134 1.033-1.833 0-.179.211-.463.468-.631.892-.584.303-1.982-.726-1.724-.638.16-1.558-.401-1.683-1.027-.064-.319-.289-.575-.623-.711-.288-.117-.776-.351-1.085-.52s-.706-.376-.883-.461c-.348-.167-1.188.076-1.296.375-.037.101-.296.139-.577.085-.368-.072-.574-.275-.738-.729-.125-.346-.267-.59-.315-.542s-.198-.005-.334-.118c-.179-.149-.195-.303-.057-.56.24-.449-.054-.471-.489-.037-.299.299-.339.293-.668-.114-.376-.464-.475-1.602-.157-1.798.106-.066.618-.159 1.138-.207.834-.077.956-.043 1.045.296.055.211.18.383.278.383s.124-.168.059-.374c-.249-.786.015-1.034 1.027-.964l.938.065v-1.247c0-1.162.026-1.239.374-1.128.206.065.374.039.374-.058 0-.255-.48-.616-.625-.471-.068.068-.123-.017-.123-.189 0-.21.157-.312.48-.312.401 0 1.087-.243 1.368-.485.135-.116-1.175-1.105-1.464-1.105-.247 0-.298-.41-.342-2.746l-.052-2.746.988-.196a18.576 18.576 0 0 1 1.736-.256zM10.93 7.514c-.083.134-.051.165.082.082.216-.133.29-.298.134-.298-.045 0-.143.097-.216.216zm-.334 1.569c-.181.47-.127.592.093.213.109-.188.159-.381.111-.429s-.14.049-.204.216zM3.29 10.642c-.081.13-.096.288-.034.349.167.168.35-.079.26-.35-.063-.19-.107-.19-.225.001zm22.472-.038c-.227.227-.129.427.156.317.154-.059.281-.183.281-.275 0-.196-.258-.221-.437-.042zm-4.803.437c0 .137.056.193.125.125s.069-.181 0-.25-.125-.012-.125.125zm2.339.187c.186.206.368.374.405.374s-.039-.168-.168-.374-.311-.374-.405-.374c-.094 0-.019.168.168.374zm-11.433.216c-.083.134-.051.165.082.082.119-.073.216-.17.216-.216 0-.156-.165-.082-.298.134zm16.205.158c0 .137.056.193.125.125s.069-.181 0-.25-.125-.012-.125.125zm-7.797.874c.069.069.181.069.25 0s.012-.125-.125-.125-.193.056-.125.125zm5.427 0c.069.069.181.069.25 0s.012-.125-.125-.125-.193.056-.125.125zm-2.682.655c0 .181 1.079.392 1.301.254.103-.064.526-.024.941.087.636.171.826.345 1.217 1.118.255.503.55.968.656 1.034.24.148-.136-.751-.6-1.436-.213-.314-.269-.546-.15-.619a.447.447 0 0 0 .191-.341c0-.157-.527-.223-1.778-.223-.978 0-1.778.056-1.778.126zm-20.652.67c-.064.386-.116 1.418-.116 2.292s.052 1.907.116 2.292l.116.702h8.584l-.059-.515c-.047-.406-.144-.503-.464-.459-.288.04-.505-.113-.749-.527-.346-.588-.851-.901-2.204-1.364-.406-.139-.792-.372-.859-.518-.461-1.012-.677-1.368-.869-1.431-.141-.047-.186.081-.127.359.09.421.085.423-.203.066-.163-.201-.397-.643-.519-.982-.22-.607-.242-.617-1.377-.617H2.482l-.116.702zm2.687-.257c0 .039.128.177.285.307.238.198.266.186.167-.071-.101-.262-.452-.446-.452-.236zm24.265.616c-.069.069-.125.279-.125.468 0 .432.712.468.875.043.153-.4-.451-.811-.75-.511zM10.76 15.345c.064.103.258.186.432.184.273-.003.278-.028.036-.184-.366-.237-.614-.237-.468 0zm18.339 1.236c-.412.249-.895.418-1.073.375-.271-.065-.291-.016-.125.295.147.275.317.343.652.259.355-.089.453-.04.453.229 0 .188-.124.505-.275.705-.408.54-.352.644.348.644.43 0 .675-.105.76-.325.213-.554.353-2.67.176-2.651-.092.01-.504.221-.916.47zm-1.847 4.635c.038.296.069.636.069.755s.147.223.328.23c.18.007.458.07.618.139.209.091.379-.059.605-.534l.315-.661h-.919c-.566 0-.951-.09-1.002-.234-.046-.129-.052.008-.014.304zm-22.817.415-.899.468.414.693c.228.381.474.762.547.847s1.302-.437 2.73-1.16l2.597-1.314-2.246-.001c-2.032-.001-2.331.043-3.144.467zm7.448 1.387c.064.103.158.187.209.187s.042-.084-.022-.187-.158-.187-.209-.187-.042.084.022.187zm14.69.748c0 .137.056.193.125.125s.069-.181 0-.25-.125-.012-.125.125z"/></symbol><symbol id="icon-ua" viewBox="0 0 32 32"><path fill="#015bbb" style="fill:var(--color1,#015bbb)" d="M14.617.149c-.086-.022-.037-.042.108-.044s.215.016.156.041a.498.498 0 0 1-.264.003zm2.064-.003c-.06-.024-.011-.044.11-.044s.17.02.11.044a.345.345 0 0 1-.22 0zm-2.483 2.019c.145-.022.996-.027 1.89-.01 2.374.043 3.71.365 5.846 1.41 1.045.511 2.757 1.667 3.123 2.109.116.14.099.147-.224.095-.224-.036-.597.004-1.039.111-.56.136-.753.229-1.029.498-.187.182-.351.411-.366.509-.025.165-.167.239-1.059.553-.204.072-.194.141.05.37.128.121.341.201.574.216.305.02.393.069.5.273.159.308.159.316-.003.316-.076 0-.132-.079-.132-.185 0-.133-.039-.17-.139-.132a.822.822 0 0 1-.231.053c-.058 0-.071.13-.036.352.046.287.03.352-.085.352-.221 0-.817.464-.846.659-.016.105-.088.171-.18.164-.085-.007-.154.027-.154.076 0 .051-.097.063-.231.03l-.231-.058.229.272c.281.333.308.88.044.88-.089 0-.162-.037-.162-.083 0-.109-.729-.074-.812.039-.036.048-.065.293-.066.544-.002.538.187.73.715.73.387 0 .593-.218.831-.88.147-.408.178-.438.454-.438.163 0 .378-.044.478-.097.152-.081.212-.061.368.122.103.12.315.291.472.38.215.121.286.221.286.406 0 .234-.058.277-.352.257-.073-.005-.044.036.064.09.166.084.222.068.371-.111.096-.116.176-.26.178-.32s.048-.11.103-.11c.055 0-.108-.193-.362-.43-.515-.479-.592-.828-.085-.387.167.145.392.31.501.368s.198.161.198.23c0 .148.336.815.444.882.121.075.246-.249.197-.509-.041-.212-.019-.241.18-.241.188 0 .236.051.283.305.079.421.194.488.87.508l.589.018-.055.266c-.03.147-.078.395-.105.552-.035.204-.097.286-.216.286-.221 0-.211.049.083.427.273.351.63 1.003.849 1.551l.14.352-.185-.183c-.171-.17-.615-.937-.92-1.589-.192-.411-.537-.645-.949-.645-.232 0-.39-.052-.463-.151-.092-.125-.146-.134-.317-.05-.397.196-.603.213-.88.075-.152-.076-.32-.138-.373-.138s-.195-.188-.316-.418l-.22-.417-.553-.029c-.461-.024-.626.009-.993.201-.242.126-.476.207-.521.18s-.241.056-.436.185c-.256.169-.384.333-.46.587-.058.194-.24.495-.405.67-.354.375-.632.889-.634 1.171-.001.111-.022.28-.048.377-.046.172-.113.175-3.051.156-1.652-.011-3.064-.045-3.138-.076s-.243-.062-.375-.068c-.192-.009-.231.02-.192.142.058.181.03.187-.264.053-.168-.077-.252-.076-.348.004-.086.072-.145.076-.184.013-.033-.053-.39-.092-.843-.092-.779 0-.909-.052-.654-.264.073-.06.132-.142.132-.182 0-.099-.736.236-.775.353-.105.316-.835-.119-.947-.564-.095-.378.01-1.086.191-1.286.143-.158.228-.175.628-.125.399.05.463.037.463-.091 0-.112.048-.134.198-.091.109.032.325.081.48.109.235.043.302.112.401.409.18.541.368.545.304.006a3.444 3.444 0 0 0-.109-.579c-.04-.104.063-.279.341-.576.219-.235.476-.606.57-.826s.277-.483.405-.584c.129-.101.321-.312.426-.469s.301-.314.434-.349c.238-.063.346.04.132.126-.06.024-.026.047.077.051.308.011.422-.205.249-.47-.081-.124-.125-.283-.098-.354.041-.108.012-.112-.188-.027a3.13 3.13 0 0 0-.411.216c-.388.255-.418.061-.053-.346.242-.271.287-.286.785-.265.377.016.566-.016.66-.11a.579.579 0 0 1 .358-.132c.17 0 .226-.045.226-.182 0-.193-.205-.452-.327-.413-.087.028-.659-.596-.811-.886l-.108-.206-.129.184c-.179.255-.322.232-.622-.101-.321-.356-.612-.533-.685-.416-.03.048-.202.063-.389.033-.332-.053-.336-.05-.372.261-.024.208.003.33.08.359.073.028.109.163.095.363-.016.242-.071.337-.226.396-.17.065-.189.107-.113.249.14.262.109.446-.075.446-.119 0-.182-.084-.222-.299-.062-.329-.253-.541-.405-.447-.054.033-.171-.007-.261-.088s-.335-.187-.544-.233C8.515 8.245 8 7.8 8 7.52c0-.276.174-.439.615-.575.218-.067.447-.192.511-.279.115-.157.369-.218.369-.089 0 .038-.066.163-.147.278-.144.205-.143.208.066.153.117-.031.331-.059.476-.061.248-.004.254-.012.097-.13a1.677 1.677 0 0 0-.264-.167c-.058-.024-.019-.106.095-.201.206-.171.37-.644.224-.644-.047 0-.21-.025-.361-.055-.249-.05-.275-.034-.275.165 0 .121-.053.264-.118.318-.092.076-.14.049-.217-.119-.06-.132-.148-.199-.223-.17-.073.028-.229-.08-.379-.262-.196-.238-.3-.298-.451-.259a.376.376 0 0 0-.245.247c-.038.152-.097.187-.263.155-.212-.041-.296.094-.124.2.308.19-.471.303-.919.133-.313-.119-.294-.302.025-.238.14.028.296.005.352-.051.143-.143.125-.269-.031-.21-.326.125-.074-.205.493-.647 1.971-1.536 4.138-2.431 6.892-2.846zm12.923 2.758c.189.193.363.352.387.352s-.111-.158-.299-.352c-.189-.193-.363-.352-.387-.352s.111.158.299.352zM17.055 6.091c-.275.138-.339.537-.125.774.218.241 1.433.246 1.65.007.208-.229.184-.594-.05-.757-.24-.168-1.159-.183-1.475-.024zm3.121 2.024c-.097.058-.188.11-.202.116-.08.035.108.472.202.472.062 0 .137.063.166.139.075.196.069.213-.078.213-.073 0-.132.078-.132.173 0 .118.042.157.132.122.073-.028.132-.007.132.047 0 .134.362.117.549-.025.162-.123.217-.279.066-.185-.048.03-.088-.025-.088-.122s-.049-.208-.11-.247c-.162-.103-.344-.46-.284-.556.029-.048-.013-.058-.1-.025-.116.045-.138.024-.095-.089.031-.081.048-.145.037-.142s-.098.052-.195.11zm-.595.654c.023.06-.021.11-.099.11-.092 0-.141.076-.141.22 0 .338.315.274.514-.104.146-.277.127-.335-.108-.335-.131 0-.193.041-.166.11zM2.877 11.01c-.501 1.31-.774 2.553-.9 4.111l-.054.659 4.479-.05-.072-.283c-.039-.156-.097-.396-.128-.534s-.227-.419-.435-.624c-.209-.206-.453-.498-.542-.65s-.194-.277-.232-.277c-.111 0-.087.054.283.626.193.299.352.622.352.717 0 .159-.016.162-.195.044-.234-.155-.499-.608-.823-1.409-.166-.41-.287-.593-.392-.593-.337 0-.868-1.096-.874-1.802-.007-.863-.116-.847-.465.065zm22.356-.376c-.346.679-.204.875.528.731.239-.047.458-.062.487-.033s.079.056.112.06c.032.004.128.038.213.075s.252.043.371.013c.189-.047.205-.08.126-.251-.142-.305-.519-.537-.882-.543-.224-.004-.389-.069-.514-.203-.101-.109-.202-.198-.223-.198s-.119.157-.216.348zm2.949-.122c-.076.076-.138.206-.138.288s-.079.218-.176.301c-.34.291-.118.856.337.856.105 0 .191.031.191.069 0 .105.517.388.607.332.044-.027.063-.118.042-.203-.026-.107.05-.194.25-.286.198-.091.296-.201.314-.356.036-.31-.212-.505-.686-.539-.322-.023-.398-.061-.408-.204a35.442 35.442 0 0 0-.022-.286c-.013-.15-.144-.138-.311.028zm-6.292 1.1c0 .214.205.184.248-.037.017-.087-.028-.147-.11-.147s-.138.075-.138.183zm6.988 2.455c-.03.049-.092.067-.137.039s-.082.07-.082.218c0 .286.261.621.484.621.184 0 .484-.319.484-.514 0-.326-.593-.614-.748-.364zm-18.625.941c-.132.034-.091.085.207.254.385.218.706.275.706.125 0-.073-.648-.461-.722-.431-.014.006-.1.029-.191.053zm16.689 12.091-.436.462.462-.436c.254-.24.462-.448.462-.462 0-.066-.081.007-.487.436zm-12.458 4.608c.06.024.159.024.22 0s.011-.044-.11-.044-.17.02-.11.044zm2.331.002c.086.022.204.021.264-.003s-.01-.042-.156-.041c-.145.002-.194.021-.108.044z"/><path fill="#f9d204" style="fill:var(--color2,#f9d204)" d="m4.523 4.769-.348.374.374-.348c.347-.323.414-.4.348-.4-.014 0-.183.168-.374.374zm-2.561 11.11c-.079.206.126 2.147.32 3.03.574 2.61 1.759 4.743 3.736 6.723 1.439 1.441 2.919 2.442 4.606 3.114.346.138.45.045.452-.405.001-.151.061-.443.133-.649s.126-.538.118-.739c-.008-.2.039-.462.104-.582.125-.231.229-1.063.315-2.511l.053-.887-.398-.326c-.334-.273-.427-.422-.578-.92-.099-.327-.301-.761-.449-.964-.213-.294-.25-.405-.179-.537.049-.092.066-.283.037-.425-.06-.298.166-.811.357-.811.097 0 .113-.107.075-.506-.051-.526-.16-.759-.272-.579-.103.166-.545.025-.701-.224-.503-.804-1.07-1.213-2.087-1.505-.193-.055-.431-.133-.527-.172l-.422-.17c-.159-.064-1.02-.099-2.442-.099-1.944 0-2.203.016-2.251.142zm6.271-.007c.058.15.22.132.274-.031.019-.058-.045-.104-.146-.104-.126 0-.165.041-.128.136zm.768-.01a.803.803 0 0 0-.019.33c.024.171.081.204.351.204.304 0 .325.018.374.328.084.527.32.946.533.946a.478.478 0 0 0 .294-.108c.086-.086.119-.068.16.088.07.267.198.247.3-.047.081-.232.56-.539.67-.429.028.028.127.009.221-.041.138-.074.211-.047.388.144.176.19.278.228.53.199.27-.031.371.016.738.346.252.226.534.396.692.416.147.019.307.059.357.09.165.102.371.593.385.915.012.284.038.317.26.321.136.002.278.054.316.115s.123.098.19.084c.07-.015.135.058.152.171.036.235.027.233.427.066.398-.166.589-.166.912.002.747.386.659 1.431-.15 1.769-.27.113-.293.153-.293.514 0 .638-.299 1.307-.704 1.575-.191.126-.381.23-.423.23-.16 0-.367.333-.367.591 0 .302-.202.595-.522.753a.635.635 0 0 0-.286.382.823.823 0 0 1-.291.42c-.126.083-.22.228-.22.34 0 .187-.125.274-.646.449-.089.03-.183.134-.208.23s-.101.175-.167.175c-.067 0-.122.083-.122.185s-.099.303-.22.446c-.211.251-.315.756-.132.643.167-.103.087.079-.137.313l-.225.235.409.103c1.464.369 3.756.464 5.375.224 3.507-.521 6.77-2.478 8.925-5.353.465-.621.594-.86.615-1.143.017-.236.065-.349.14-.334.066.014.103-.042.088-.132-.017-.099.03-.156.128-.156.278-.002 1.009-1.649 1.384-3.118.217-.851.436-2.376.438-3.058l.002-.462-.418.29c-.444.308-1.414.767-1.615.766-.142-.001-.485-.503-.567-.829-.031-.125-.099-.253-.15-.284-.055-.034-.073-.007-.044.067l.206.52c.086.218.258.542.383.721.227.325.228.325.732.273l.505-.052-.096.298c-.199.617-.356.862-1.037 1.623-.657.735-.703.812-.757 1.28-.032.274-.02.571.026.661.275.536.135 1.359-.294 1.727-.191.164-.253.331-.349.926-.099.618-.161.776-.416 1.058a4.696 4.696 0 0 0-.508.702c-.136.241-.286.387-.432.418-.123.026-.407.09-.63.143-.482.113-.693.053-.693-.198 0-.101-.134-.508-.298-.904s-.39-1.037-.504-1.424c-.204-.696-.217-.907-.151-2.418.026-.602.007-.691-.217-1.022-.264-.39-.277-.469-.186-1.108.066-.463.112-.423-.675-.596a2.369 2.369 0 0 0-1.003-.02c-.669.115-1.056.005-1.459-.418-.435-.456-.716-1.073-.747-1.64-.014-.26-.051-.513-.081-.562-.066-.107-5.63-.106-6.309.001-.294.046-.525.037-.666-.028-.166-.075-.225-.073-.253.01-.043.129-.373.148-.373.021 0-.052-.309-.088-.75-.088-.569 0-.762.03-.798.125zM4.527 27.077c.238.242.453.44.477.44s-.151-.198-.389-.44c-.238-.242-.453-.44-.477-.44s.151.198.389.44z"/><path fill="#041e39" style="fill:var(--color3,#041e39)" d="M14.254.183c7.352-.709 14.256 3.804 16.552 10.821.579 1.77.71 2.678.71 4.908 0 1.721-.027 2.109-.204 2.985-.524 2.589-1.683 5.065-3.273 6.993-1.171 1.419-2.701 2.741-4.183 3.613-4.57 2.69-10.163 2.939-14.9.664-4.459-2.142-7.625-6.211-8.657-11.128-.308-1.467-.385-3.796-.174-5.23C.641 10.308 2 7.496 4.385 4.99 6.947 2.298 10.556.54 14.253.183zm-.056 1.982c-2.755.415-4.921 1.31-6.892 2.846-.567.442-.818.772-.493.647.156-.06.175.066.031.21-.056.056-.212.078-.352.051-.319-.064-.339.119-.025.238.447.17 1.227.057.919-.133-.171-.106-.088-.241.124-.2.166.032.225-.003.263-.155a.376.376 0 0 1 .245-.247c.151-.039.255.02.451.259.15.182.306.29.379.262.075-.029.163.038.223.17.077.169.126.195.217.119.065-.054.118-.197.118-.318 0-.2.026-.215.275-.165.151.03.314.055.361.055.146 0-.018.473-.224.644-.114.095-.153.177-.095.201.054.022.172.097.264.167.156.118.15.126-.097.13-.145.002-.359.03-.476.061-.208.056-.21.053-.066-.153.081-.115.147-.24.147-.278 0-.129-.254-.068-.369.089-.063.086-.293.212-.511.279-.441.136-.615.298-.615.575 0 .28.515.725.951.823.209.047.454.152.544.233s.208.121.261.088c.151-.094.343.118.405.447.04.215.103.299.222.299.184 0 .215-.184.075-.446-.076-.142-.057-.184.113-.249.155-.059.21-.155.226-.396.014-.2-.022-.335-.095-.363-.077-.03-.104-.151-.08-.359.036-.311.041-.314.372-.261.187.03.359.015.389-.033.072-.117.364.059.685.416.3.333.444.356.622.101l.129-.184.108.206c.152.29.724.914.811.886.122-.039.327.22.327.413 0 .137-.056.182-.226.182a.582.582 0 0 0-.358.132c-.094.094-.284.126-.66.11-.498-.021-.543-.006-.785.265-.364.408-.335.601.053.346.095-.063.28-.16.411-.216.2-.086.23-.082.188.027-.027.071.017.23.098.354.174.265.059.481-.249.47-.103-.004-.138-.027-.077-.051.214-.086.106-.189-.132-.126-.133.035-.328.193-.434.349s-.298.368-.426.469c-.129.101-.311.364-.405.584s-.351.592-.57.826c-.278.297-.381.472-.341.576.032.082.081.343.109.579.064.538-.124.534-.304-.006-.099-.297-.167-.366-.401-.409a5.71 5.71 0 0 1-.48-.109c-.15-.044-.198-.022-.198.091 0 .128-.064.14-.463.091-.4-.05-.485-.033-.628.125-.178.197-.286.907-.193 1.276.066.261.735.954.852.882.044-.027.08-.125.08-.217 0-.112.123-.222.374-.334.435-.193.509-.175.285.072-.098.109-.163.321-.168.55-.008.372-.007.373.314.373.304 0 .325.018.374.328.084.527.32.946.533.946a.478.478 0 0 0 .294-.108c.086-.086.119-.068.16.088.07.267.198.247.3-.047.081-.232.56-.539.67-.429.028.028.127.009.221-.041.138-.074.211-.047.388.144.176.19.278.228.53.199.27-.031.371.016.738.346.252.226.534.396.692.416.147.019.307.059.357.09.165.102.371.593.385.915.012.284.038.317.26.321.136.002.278.054.316.115s.123.098.19.084c.07-.015.135.058.152.171.036.235.027.233.427.066.398-.166.589-.166.912.002.747.386.659 1.431-.15 1.769-.27.113-.293.153-.293.514 0 .638-.299 1.307-.704 1.575-.191.126-.381.23-.423.23-.16 0-.367.333-.367.591 0 .302-.202.595-.522.753a.635.635 0 0 0-.286.382.823.823 0 0 1-.291.42c-.126.083-.22.228-.22.34 0 .187-.125.274-.646.449-.089.03-.183.134-.208.23s-.101.175-.167.175c-.067 0-.122.083-.122.185s-.099.303-.22.446c-.211.251-.315.756-.132.643.167-.103.087.079-.137.313l-.225.235.409.103c1.464.369 3.756.464 5.375.224 3.507-.521 6.77-2.478 8.925-5.353.465-.621.594-.86.615-1.143.017-.236.065-.349.14-.334.066.014.103-.042.088-.132-.017-.099.03-.156.128-.156.278-.002 1.009-1.649 1.384-3.118.217-.851.436-2.376.438-3.058l.002-.462-.418.29c-.444.308-1.412.767-1.618.767-.157 0-.4-.404-.712-1.187-.314-.788-.643-1.41-.958-1.815-.294-.378-.304-.427-.083-.427.119 0 .18-.082.216-.286.027-.157.074-.406.105-.552l.055-.266-.589-.018c-.677-.02-.791-.087-.87-.508-.048-.254-.095-.305-.283-.305-.199 0-.22.029-.18.241.05.26-.076.584-.197.509-.108-.067-.444-.734-.444-.882 0-.069-.089-.173-.198-.23s-.334-.223-.501-.368c-.507-.44-.43-.091.085.387.254.236.417.43.362.43s-.102.05-.103.11c-.002.06-.082.204-.178.32-.149.179-.204.195-.371.111-.108-.054-.136-.095-.064-.09.293.02.352-.022.352-.257 0-.185-.07-.284-.286-.406a2.07 2.07 0 0 1-.472-.38c-.156-.183-.216-.203-.368-.122-.1.053-.315.097-.478.097-.276 0-.307.03-.454.438-.238.663-.444.88-.831.88-.528 0-.717-.192-.715-.73.001-.251.03-.496.066-.544.083-.113.812-.148.812-.039 0 .045.073.083.162.083.264 0 .236-.547-.044-.88l-.229-.272.231.058c.134.034.231.021.231-.03 0-.048.069-.082.154-.076.092.007.164-.059.18-.164.029-.195.625-.659.846-.659.115 0 .131-.064.085-.352-.036-.222-.022-.352.036-.352a.822.822 0 0 0 .231-.053c.1-.038.139-.001.139.132 0 .106.056.185.132.185.162 0 .162-.009.003-.316-.106-.205-.194-.253-.5-.273-.233-.016-.446-.096-.574-.216-.244-.229-.254-.299-.05-.37.892-.314 1.035-.388 1.059-.553.015-.097.179-.326.366-.509.276-.269.469-.363 1.029-.498.442-.107.815-.147 1.039-.111.323.052.34.045.224-.095-.366-.442-2.078-1.597-3.123-2.109-2.136-1.045-3.472-1.367-5.846-1.41-.895-.016-1.745-.011-1.89.01zm2.857 3.926c-.275.138-.339.537-.125.774.218.241 1.433.246 1.65.007.208-.229.184-.594-.05-.757-.24-.168-1.159-.183-1.475-.024zm3.121 2.024c-.097.058-.188.11-.202.116-.08.035.108.472.202.472.062 0 .137.063.166.139.075.196.069.213-.078.213-.073 0-.132.078-.132.173 0 .118.042.157.132.122.073-.028.132-.007.132.047 0 .134.362.117.549-.025.162-.123.217-.279.066-.185-.048.03-.088-.025-.088-.122s-.049-.208-.11-.247c-.162-.103-.344-.46-.284-.556.029-.048-.013-.058-.1-.025-.116.045-.138.024-.095-.089.031-.081.048-.145.037-.142s-.098.052-.195.11zm-.595.654c.023.06-.021.11-.099.11-.092 0-.141.076-.141.22 0 .338.315.274.514-.104.146-.277.127-.335-.108-.335-.131 0-.193.041-.166.11zM2.879 11.006c-1.615 4.221-1.092 8.818 1.439 12.643.746 1.127 2.555 2.939 3.678 3.684.771.512 1.932 1.136 2.628 1.413.346.138.45.045.452-.405.001-.151.061-.443.133-.649s.126-.538.118-.739c-.008-.2.039-.462.104-.582.125-.231.229-1.063.315-2.511l.053-.887-.398-.326c-.334-.273-.427-.422-.578-.92-.099-.327-.301-.761-.449-.964-.213-.294-.25-.405-.179-.537.049-.092.066-.283.037-.425-.06-.298.166-.811.357-.811.097 0 .113-.107.075-.506-.051-.526-.16-.759-.272-.579-.103.166-.545.025-.701-.224-.503-.804-1.07-1.213-2.087-1.505-.835-.239-1.216-.466-1.286-.763l-.115-.499c-.031-.138-.228-.419-.436-.624-.209-.206-.453-.498-.543-.65s-.194-.277-.232-.277c-.111 0-.087.054.283.626.193.299.352.622.352.717 0 .159-.016.162-.195.044-.234-.155-.499-.608-.823-1.409-.166-.41-.287-.593-.392-.593-.337 0-.868-1.096-.874-1.802-.007-.862-.116-.847-.463.061zm22.354-.372c-.346.679-.204.875.528.731.239-.047.458-.062.487-.033s.079.056.112.06c.032.004.128.038.213.075s.252.043.371.013c.189-.047.205-.08.126-.251-.142-.305-.519-.537-.882-.543-.224-.004-.389-.069-.514-.203-.101-.109-.202-.198-.223-.198s-.119.157-.216.348zm2.949-.122c-.076.076-.138.206-.138.288s-.079.218-.176.301c-.34.291-.118.856.337.856.105 0 .191.031.191.069 0 .105.517.388.607.332.044-.027.063-.118.042-.203-.026-.107.05-.194.25-.286.198-.091.296-.201.314-.356.036-.31-.212-.505-.686-.539-.322-.023-.398-.061-.408-.204a35.442 35.442 0 0 0-.022-.286c-.013-.15-.144-.138-.311.028zm-6.292 1.1c0 .214.205.184.248-.037.017-.087-.028-.147-.11-.147s-.138.075-.138.183zm-1.167.828c-.231.125-.457.204-.502.176s-.242.055-.437.184c-.256.169-.384.333-.46.587-.058.194-.24.495-.405.67-.535.567-.657.915-.667 1.9-.008.76.02.937.201 1.306.282.572.775 1.073 1.161 1.179.208.057.489.057.826-.001.37-.064.646-.058 1.003.02.787.173.742.133.675.596-.092.639-.078.718.186 1.108.224.331.243.421.217 1.022-.066 1.511-.053 1.722.151 2.418.114.387.34 1.027.504 1.424s.298.803.298.904c0 .251.211.311.693.198.223-.052.507-.117.63-.143.146-.031.297-.176.432-.418.114-.204.343-.519.508-.702.255-.282.317-.44.416-1.058.095-.595.158-.762.349-.926.429-.369.569-1.192.294-1.727-.046-.089-.057-.387-.026-.661.054-.468.1-.546.757-1.28.681-.762.838-1.007 1.037-1.623l.096-.298-.505.052c-.505.052-.506.051-.732-.273-.125-.179-.319-.562-.432-.853s-.263-.595-.334-.678c-.13-.153-.613-1.022-.852-1.533-.192-.411-.537-.645-.949-.645-.232 0-.39-.052-.463-.151-.092-.125-.146-.134-.317-.05-.397.196-.603.213-.88.075-.152-.076-.32-.138-.373-.138s-.195-.188-.316-.418l-.22-.417-.571-.025c-.477-.021-.641.012-.992.201zm8.155 1.627c-.03.049-.092.067-.137.039s-.082.07-.082.218c0 .286.261.621.484.621.184 0 .484-.319.484-.514 0-.326-.593-.614-.748-.364zm-18.625.941c-.132.034-.091.085.207.254.385.218.706.275.706.125 0-.073-.648-.461-.722-.431-.014.006-.1.029-.191.053zm1.204.684c.016.048.184.1.374.116.272.022.322.005.239-.08-.128-.13-.653-.161-.612-.036z"/></symbol><symbol id="icon-arrow-right" viewBox="0 0 32 32"><path d="M6.666 16h18.668M16 25.334 25.332 16 16 6.666"/></symbol><symbol id="icon-arrow-left" viewBox="0 0 32 32"><path d="M25.334 16H6.666M16 25.334 6.666 16 16 6.666"/></symbol><symbol id="icon-search" viewBox="0 0 16 16"><path d="M7.333 12.667A5.333 5.333 0 1 0 7.333 2a5.333 5.333 0 0 0 0 10.667ZM14 14l-2.9-2.9" fill="none" stroke-linecap="round" stroke-linejoin="round"/></symbol><symbol id="icon-logo" viewBox="0 0 32 32"><path fill="none" stroke-linejoin="round" stroke-linecap="round" stroke-width="2" d="M26.427 2.667H5.573a2.907 2.907 0 0 0-2.907 2.906v20.854a2.907 2.907 0 0 0 2.907 2.906h20.854a2.907 2.907 0 0 0 2.906-2.906V5.573a2.907 2.907 0 0 0-2.906-2.906zm-17.093 0v26.666M22.666 2.667v26.666M2.667 16h26.666M2.667 9.333h6.666M2.667 22.667h6.666m13.333 0h6.667M22.666 9.333h6.667"/></symbol><symbol id="icon-filter" viewBox="0 0 24 24"><path d="m19.845 4-6.609 7.814a.995.995 0 0 0-.236.646v6.922l-2-1V12.46a.996.996 0 0 0-.236-.646L4.155 4zM22 2H2a1 1 0 0 0-.764 1.646L9 12.826V19a1 1 0 0 0 .553.894l4 2A1 1 0 0 0 15 21v-8.174l7.764-9.18A.999.999 0 0 0 22 2z"/></symbol><symbol id="icon-close" viewBox="0 0 32 32"><path d="m8.533 8.533 14.933 14.933m-14.933.001L23.466 8.534"/></symbol><symbol id="icon-sun" viewBox="0 0 24 24"><path d="M12 6.934 13 4a1.055 1.055 0 1 0-2 0l1 2.934zM4 11a1.055 1.055 0 1 0 0 2l2.934-1L4 11zm8 6.066L11 20a1.055 1.055 0 1 0 2 0l-1-2.934zm9.341-5.409A1.055 1.055 0 0 0 20 10.998l-2.934 1 2.934 1a1.057 1.057 0 0 0 1.341-1.341zM5.636 7.05l2.781 1.367L7.05 5.636A1.057 1.057 0 1 0 5.636 7.05zm-.483 10.382a1.057 1.057 0 0 0 1.896.932l1.367-2.781-2.781 1.367a1.056 1.056 0 0 0-.482.482zm13.21-.483-2.781-1.367 1.367 2.781a1.056 1.056 0 1 0 1.414-1.414zm.481-10.383a1.057 1.057 0 0 0-1.895-.933L15.58 8.416l2.782-1.368c.202-.1.375-.264.482-.482zM12 7.5c-2.481 0-4.5 2.019-4.5 4.5s2.019 4.5 4.5 4.5 4.5-2.019 4.5-4.5-2.019-4.5-4.5-4.5z"/></symbol><symbol id="icon-moon" viewBox="0 0 32 32"><path d="M18.214 11.762 17 15l-1.214-3.238L13.5 11l2.286-.762L17 7l1.214 3.238L20.5 11l-2.286.762zm4 6.476L21 15l-1.214 3.238L17.5 19l2.286.762L21 23l1.214-3.238L24.5 19l-2.286-.762zm-7.378 4.093a5.501 5.501 0 1 1-5.582-6.832 4.5 4.5 0 0 0 5.741 5.741c-.016.375-.07.739-.158 1.091zm12.031-9.902L28.5 13l-1.633.571L26 16l-.867-2.429L23.5 13l1.633-.571L26 10l.867 2.429z"/></symbol><symbol id="icon-github" viewBox="0 0 32 32"><path fill="$blackColor" d="M16 .395c-8.836 0-16 7.163-16 16 0 7.069 4.585 13.067 10.942 15.182.8.148 1.094-.347 1.094-.77 0-.381-.015-1.642-.022-2.979-4.452.968-5.391-1.888-5.391-1.888-.728-1.849-1.776-2.341-1.776-2.341-1.452-.993.11-.973.11-.973 1.606.113 2.452 1.649 2.452 1.649 1.427 2.446 3.743 1.739 4.656 1.33.143-1.034.558-1.74 1.016-2.14-3.554-.404-7.29-1.777-7.29-7.907 0-1.747.625-3.174 1.649-4.295-.166-.403-.714-2.03.155-4.234 0 0 1.344-.43 4.401 1.64a15.353 15.353 0 0 1 4.005-.539c1.359.006 2.729.184 4.008.539 3.054-2.07 4.395-1.64 4.395-1.64.871 2.204.323 3.831.157 4.234 1.026 1.12 1.647 2.548 1.647 4.295 0 6.145-3.743 7.498-7.306 7.895.574.497 1.085 1.47 1.085 2.963 0 2.141-.019 3.864-.019 4.391 0 .426.288.925 1.099.768C27.421 29.457 32 23.462 32 16.395c0-8.837-7.164-16-16-16z"/></symbol><symbol id="icon-password" viewBox="0 0 32 32"><path d="M24.261 11.539h-.521V7.738c0-4.267-3.472-7.739-7.739-7.739S8.262 3.471 8.262 7.738v3.801H7.74a2.76 2.76 0 0 0-2.757 2.757v14.946a2.76 2.76 0 0 0 2.757 2.757h16.521a2.76 2.76 0 0 0 2.757-2.757V14.296a2.76 2.76 0 0 0-2.757-2.757zm-13.637-3.8c0-2.964 2.412-5.375 5.376-5.375s5.376 2.411 5.376 5.375v3.801H10.624V7.739zm14.03 21.504a.4.4 0 0 1-.394.394H7.739a.4.4 0 0 1-.394-.394V14.297a.4.4 0 0 1 .394-.394H24.26a.4.4 0 0 1 .394.394v14.946z"/><path d="M16 18.326c-.653 0-1.182.529-1.182 1.182v4.524a1.182 1.182 0 1 0 2.364 0v-4.524c0-.653-.529-1.182-1.182-1.182z"/></symbol><symbol id="icon-email" viewBox="0 0 44 32"><path d="M2.539 0h39.174a2.546 2.546 0 0 1 2.521 2.538v26.941c0 .531-.164 1.024-.445 1.43l.005-.008a1.018 1.018 0 0 1-.237.36.924.924 0 0 1-.232.163l-.005.002a2.504 2.504 0 0 1-1.624.594H2.54a2.546 2.546 0 0 1-2.521-2.519V2.538A2.546 2.546 0 0 1 2.538-.001h.001zm-.108 28.392 13.245-13.764L2.431 3.436v24.956zm15.24-12.046L3.518 30.052H40.61L27.088 16.346l-3.961 3.317a.969.969 0 0 1-1.244-.002l.002.001-4.213-3.317zm11.38-1.743 12.77 13.901V3.314l-12.77 11.29zM3.677 1.948l18.791 15.229L40.431 1.948z"/></symbol><symbol id="icon-user" viewBox="0 0 20 20"><path d="M5 5a5 5 0 0 1 10 0v2A5 5 0 0 1 5 7V5zM0 16.68C2.86 14.995 6.301 14 9.974 14h.027H10c3.64 0 7.06.97 10 2.68V20H0v-3.32z"/></symbol><symbol id="icon-exit" viewBox="0 0 32 32"><path d="M24 20v-4H14v-4h10V8l6 6zm-2-2v8H12v6L0 26V0h22v10h-2V2H4l8 4v18h8v-6z"/></symbol><symbol id="icon-circle-right" viewBox="0 0 32 32"><path d="M16 0C7.163 0 0 7.163 0 16s7.163 16 16 16 16-7.163 16-16S24.837 0 16 0zm0 29C8.82 29 3 23.18 3 16S8.82 3 16 3s13 5.82 13 13-5.82 13-13 13z"/><path d="m11.086 22.086 2.829 2.829 8.914-8.914-8.914-8.914-2.828 2.828 6.086 6.086z"/></symbol><symbol id="icon-circle-left" viewBox="0 0 32 32"><path d="M16 32c8.837 0 16-7.163 16-16S24.837 0 16 0 0 7.163 0 16s7.163 16 16 16zm0-29c7.18 0 13 5.82 13 13s-5.82 13-13 13S3 23.18 3 16 8.82 3 16 3z"/><path d="m20.914 9.914-2.829-2.829-8.914 8.914 8.914 8.914 2.828-2.828-6.086-6.086z"/></symbol></defs></svg>