<svg version="1.0" xmlns="http://www.w3.org/2000/svg" width="682.667" height="682.667" viewBox="0 0 512 512"><path d="M180.5 17.4C169.6 20 158.1 28.3 152 37.6l-2.6 4.2-4-2.4c-14.7-9-33-9.5-48.3-1.4-10.8 5.8-18.5 15.2-22.8 27.9l-2.1 6.5-7.2-.1c-11.1-.2-17.5 2.1-26.9 9.6-17 13.5-18.6 40.7-3.3 57l5.2 5.6v15.2l-3.7.7c-7.4 1.1-14.2 6.3-18.2 13.5-1.6 2.9-2.7 21.9-1.7 27.5.8 4.4 4.5 6.6 11 6.6 2.5 0 4.7.3 4.9.7.3.5.8 5.7 1.1 11.8.4 6 .9 13 1.1 15.5.8 9 1.7 21.6 2 28.5.3 3.8.7 9.7.9 13 .3 3.3.8 10 1.2 15 .3 4.9.7 11 .9 13.5.3 2.5.7 8.8 1 14 .4 5.2.8 11.1 1 13 .2 1.9.6 8.4 1 14.5.3 6 .8 12.6 1 14.5.2 1.9.7 8 1 13.5.3 5.5.7 12 1 14.5.2 2.5.7 8.3 1 13 1.6 24.5 2 26.5 6 28 1.6.6 20.4 1 47.1 1H144v21.3c0 24.5.8 29.1 6.5 34.8 7.6 7.8 2.3 7.4 83.3 7.7 47.4.2 72.9-.1 74.1-.8 1.1-.5 4.1-5.3 6.8-10.5 2.6-5.2 5-9.5 5.3-9.5.3 0 2.6 4.1 5 9.1 3.1 6.3 5.3 9.5 7.2 10.5 2.2 1.2 14.7 1.4 73.1 1.4 50.6 0 71.4-.3 73.8-1.2 5.3-1.8 10.4-5.9 13.6-10.8l2.8-4.5.3-52.9c.3-61.4.4-60.5-7.7-67.8-2.7-2.4-6.7-5-8.9-5.6-2.8-.9-20.3-1.2-63.2-1.2h-59.2l.7-12.3c.4-6.7.8-14.2 1-16.7.1-2.5.5-8.8.9-14 .3-5.2.8-12.7 1.1-16.5.3-3.9.7-10.4 1-14.5.3-4.1.7-12 1.1-17.5.3-5.5.7-12.3.9-15 .2-2.8.7-10 1-16 .4-6.1.8-12.8 1-15 .2-2.2.4-4.5.4-5.1.1-.7 2.9-1.3 7.2-1.6 10-.5 10.8-1.8 10.9-15.9 0-14.3-1.7-19.6-8.3-25.5-2.7-2.4-5.5-4.4-6.3-4.4-1 0-1.4-1.6-1.4-6.3 0-5 .5-7 2.4-9.8 10.8-15.9 4.6-38.5-12.8-46.5-4.7-2.1-5.6-3-5.7-5.2-.1-5.4-1-8.8-3.8-14.7-4.2-9-10-14.8-18.8-19.2-7-3.5-8.2-3.7-16.7-3.8-12.6 0-23.1 4.4-30 12.6-2.8 3.3-2.7 3.3-9.6-2-5.8-4.4-15.2-8.7-21.5-9.7-2.8-.4-5.3-.9-5.7-1-.5-.1-2.1-.2-3.6-.3-2.5-.1-3-.6-4.2-5.3-6-23.7-33-39.3-57.5-33.4z"/></svg>