<svg aria-hidden="true" style="position: absolute; width: 0; height: 0; overflow: hidden;"
    version="1.1" xmlns="http://www.w3.org/2000/svg" xmlns:xlink="http://www.w3.org/1999/xlink">
    <defs>
        <symbol id="icon-uk" viewBox="0 0 32 32">
            <path fill="#fff" style="fill: var(--color1, #fff)"
                d="M18.713 4.289v-1.886l0.608 0.132c1.532 0.333 1.45 0.167 1.45 2.943 0 1.608-0.075 2.569-0.212 2.706-0.125 0.125-0.151 0.351-0.064 0.552 0.081 0.187 0.132 0.441 0.112 0.565s0.084 0.512 0.231 0.864c0.31 0.743 0.207 0.97-0.441 0.97-0.364 0-0.48 0.107-0.524 0.484-0.125 1.079 0.987 1.101 1.499 0.029 0.337-0.707 1.047-0.764 1.723-0.137 0.582 0.539 0.882 0.472 0.515-0.115-0.214-0.342-0.202-0.359 0.126-0.184 0.199 0.106 0.415 0.406 0.48 0.666 0.141 0.562 0.486 0.632 0.486 0.098 0-0.461 0.342-0.493 0.507-0.047 0.167 0.451 0.431 0.602 1.060 0.605 0.457 0.002 0.502 0.045 0.305 0.284-0.173 0.208-0.632 0.281-1.772 0.281-1.301 0-1.591-0.058-1.878-0.374-0.186-0.206-0.571-0.374-0.856-0.374s-0.91 0.168-1.39 0.374c-0.48 0.206-1.119 0.374-1.419 0.374h-0.546v-2.983c0-1.787 0.075-3.030 0.187-3.099 0.103-0.064 0.187-0.279 0.187-0.479s-0.084-0.363-0.187-0.363c-0.112 0-0.187-0.753-0.187-1.886zM11.509 2.978c0.515-0.181 0.957-0.336 0.982-0.343s0.047 1.175 0.047 2.628c0 2.092-0.049 2.603-0.234 2.451-0.129-0.106-0.487-0.221-0.795-0.257-0.543-0.063-0.56-0.042-0.508 0.637 0.032 0.418-0.030 0.702-0.153 0.702s-0.16 0.17-0.091 0.421c0.097 0.356 0.084 0.371-0.086 0.101-0.127-0.202-0.182-1.371-0.149-3.165l0.052-2.846 0.936-0.329zM5.503 4.146c0.133-0.216 0.298-0.29 0.298-0.134 0 0.045-0.097 0.143-0.216 0.216-0.134 0.083-0.165 0.051-0.082-0.082zM27.602 5.053c-0.402-0.412-0.689-0.749-0.637-0.749s0.423 0.337 0.825 0.749c0.402 0.412 0.689 0.749 0.637 0.749s-0.423-0.337-0.825-0.749zM19.818 9.098c-0.217 0.262-0.203 0.293 0.102 0.234 0.194-0.038 0.388-0.173 0.431-0.302 0.111-0.334-0.236-0.289-0.533 0.068zM12.257 10.105c0.064-0.103 0.153-0.187 0.198-0.187s0.083 0.084 0.083 0.187c0 0.103-0.089 0.187-0.198 0.187s-0.146-0.084-0.083-0.187zM28.582 10.849c0.277-0.394 0.334-0.414 0.388-0.135 0.035 0.18 0.215 0.328 0.401 0.328s0.45 0.136 0.588 0.302c0.214 0.258 0.192 0.35-0.156 0.632-0.224 0.181-0.348 0.394-0.275 0.472s0.048 0.107-0.055 0.064c-1.291-0.541-1.459-0.854-0.892-1.662zM12.050 11.311c0.217-0.248 0.415-0.452 0.441-0.453s0.047 0.502 0.047 1.119v1.123h-1.672l0.395-0.669c0.217-0.368 0.572-0.872 0.789-1.119zM25.643 11.034c0.604-0.382 1.866-0.109 1.866 0.404 0 0.181-1.804 0.108-1.992-0.081-0.082-0.082-0.025-0.227 0.126-0.323zM3.119 11.166c0.215-0.215 0.437-0.136 0.437 0.156 0 0.154-0.126 0.281-0.281 0.281-0.292 0-0.371-0.221-0.156-0.437zM22.331 11.727c0.069 0.069 0.181 0.069 0.25 0s0.012-0.125-0.125-0.125-0.193 0.056-0.125 0.125zM2.62 12.538c0-0.137 0.056-0.193 0.125-0.125s0.068 0.181 0 0.25c-0.069 0.069-0.125 0.012-0.125-0.125zM3.419 13.042c-0.182-0.048-0.078-0.089 0.23-0.093s0.458 0.035 0.331 0.086c-0.127 0.051-0.379 0.054-0.561 0.007zM0.187 14.222c0-0.137 0.056-0.193 0.125-0.125s0.069 0.181 0 0.25c-0.069 0.069-0.125 0.012-0.125-0.125zM2.62 19.245c0-0.087 1.863-0.157 4.14-0.157 3.288 0 4.101 0.048 3.951 0.234-0.295 0.365-0.219 1.287 0.167 2.006 0.193 0.36 0.351 0.735 0.351 0.834s0.227 0.417 0.504 0.706l0.504 0.526-0.219 1.542c-0.255 1.789-0.633 3.947-0.709 4.039-0.029 0.035-0.227 0.008-0.441-0.059-0.374-0.119-0.388-0.247-0.388-3.479 0-1.846-0.043-3.356-0.096-3.356s-1.208 0.557-2.566 1.237c-2.432 1.219-2.881 1.317-3.094 0.675-0.039-0.117 1.093-0.801 2.515-1.521l2.586-1.308-2.205-0.010c-1.998-0.009-2.293 0.035-3.138 0.463l-0.932 0.472-0.207-0.519c-0.276-0.691-0.723-2.13-0.723-2.327zM18.713 24.421v-5.333h3.743v0.474c0 0.261 0.133 0.677 0.296 0.925 0.226 0.346 0.265 0.692 0.167 1.483l-0.129 1.032-0.909-0.461c-0.5-0.253-0.954-0.461-1.009-0.461s-0.1 1.597-0.1 3.548v3.548l-0.97 0.288c-0.533 0.159-0.996 0.288-1.029 0.288s-0.059-2.4-0.059-5.333zM27.824 19.613c-0.292 0.304-0.503 0.737-0.503 1.029 0 0.48 0.045 0.504 0.928 0.504h0.929l0.288-0.97c0.159-0.533 0.288-0.996 0.288-1.029s-0.321-0.059-0.714-0.059c-0.537 0-0.838 0.13-1.216 0.525zM20.257 20.16c-0.614 0.111-0.594 1.102 0.028 1.386 0.886 0.404 2.22-0.45 1.606-1.028-0.327-0.308-1.044-0.465-1.634-0.358zM27.381 22.409c-0.064 0.18-0.226 0.456-0.36 0.613-0.328 0.384-0.561 1.866-0.295 1.866 0.275 0 1.156-1.181 1.156-1.548 0-0.163 0.128-0.425 0.285-0.582 0.255-0.255 0.247-0.306-0.081-0.481-0.494-0.264-0.571-0.25-0.706 0.131zM4.678 27.228c0.349 0.36 0.677 0.655 0.728 0.655s-0.192-0.295-0.541-0.655c-0.349-0.36-0.677-0.655-0.728-0.655s0.192 0.295 0.541 0.655z"></path>
            <path fill="#000" style="fill: var(--color2, #000)"
                d="M14.071 0.388c1.785-0.232 2.522-0.222 4.362 0.059 3.364 0.514 6.048 1.815 8.448 4.094 1.701 1.616 2.432 2.595 3.432 4.599 1.149 2.303 1.535 3.975 1.561 6.766 0.026 2.757-0.304 4.359-1.375 6.676-1.595 3.453-4.072 6.029-7.394 7.694-4.551 2.28-10.41 2.064-14.936-0.552-1.611-0.931-4.601-3.878-5.521-5.442-1.587-2.698-2.167-4.891-2.166-8.189 0.001-3.003 0.295-4.356 1.484-6.83 2.348-4.89 6.855-8.194 12.106-8.875zM15.251 2.19c-1.828 0.175-3.83 0.667-4.866 1.196-1.493 0.763-3.38 2.119-3.322 2.387 0.026 0.118-0.085 0.215-0.245 0.215s-0.24 0.084-0.176 0.187c0.197 0.319 0.933 0.206 1.216-0.187 0.279-0.387 0.936-0.518 0.936-0.187 0 0.103 0.126 0.187 0.281 0.187s0.281 0.084 0.281 0.187c0 0.103 0.084 0.187 0.187 0.187s0.187-0.126 0.187-0.281c0-0.154 0.126-0.281 0.281-0.281 0.156 0 0.281 0.166 0.281 0.374 0 0.206-0.095 0.374-0.21 0.374-0.145 0-0.138 0.087 0.023 0.281 0.194 0.234 0.168 0.281-0.158 0.281-0.26 0-0.357-0.089-0.29-0.264 0.081-0.212-0.030-0.203-0.568 0.047-0.526 0.244-0.659 0.406-0.622 0.759 0.049 0.464 0.13 0.528 1.31 1.041 0.386 0.168 0.702 0.427 0.702 0.577s0.117 0.272 0.26 0.272c0.289 0 0.532-0.982 0.405-1.637-0.064-0.33 0.004-0.421 0.314-0.421 0.217 0 0.548 0.138 0.734 0.306s0.493 0.316 0.681 0.328c0.333 0.021 1.654 1.005 1.513 1.127-0.296 0.255-0.979 0.485-1.439 0.485-0.552 0-1.137 0.457-0.895 0.699 0.071 0.071 0.283 0.033 0.47-0.085 0.254-0.159 0.396-0.159 0.553-0.002 0.339 0.339 0.244 0.546-0.187 0.409-0.31-0.098-0.538 0.031-1.029 0.583-0.347 0.39-0.631 0.781-0.631 0.87s-0.179 0.403-0.398 0.7c-0.28 0.38-0.362 0.682-0.277 1.022 0.067 0.266 0.045 0.483-0.048 0.483s-0.214-0.173-0.269-0.383c-0.088-0.338-0.211-0.373-1.045-0.296-0.52 0.048-1.032 0.142-1.138 0.207-0.318 0.197-0.219 1.334 0.157 1.798 0.33 0.407 0.369 0.414 0.668 0.114 0.435-0.435 0.729-0.412 0.489 0.037-0.138 0.257-0.122 0.411 0.057 0.56 0.136 0.113 0.287 0.166 0.334 0.118s0.19 0.196 0.315 0.542c0.164 0.453 0.37 0.657 0.738 0.729 0.28 0.054 0.54 0.016 0.577-0.085 0.108-0.299 0.949-0.542 1.296-0.375 0.177 0.085 0.574 0.293 0.883 0.461s0.797 0.403 1.085 0.52c0.335 0.136 0.56 0.393 0.623 0.711 0.125 0.626 1.045 1.187 1.683 1.027 1.029-0.258 1.618 1.139 0.726 1.724-0.257 0.169-0.468 0.453-0.468 0.631 0 0.699-0.412 1.429-1.033 1.833-0.358 0.233-0.651 0.572-0.651 0.754s-0.147 0.47-0.328 0.64c-0.51 0.481-0.795 0.864-0.795 1.066 0 0.102-0.226 0.295-0.501 0.429-0.57 0.278-1.149 1.163-1.169 1.788-0.008 0.232-0.119 0.43-0.248 0.44s0.271 0.133 0.889 0.273c1.357 0.306 3.862 0.338 5.52 0.070 1.433-0.231 3.904-1.353 5.506-2.499 1.478-1.057 3.224-2.901 3.598-3.798 0.162-0.39 0.351-0.751 0.42-0.802 0.279-0.209 1.32-2.765 1.411-3.462 0.238-1.833 0.34-3.088 0.251-3.088-0.054 0-0.489 0.219-0.967 0.486s-0.996 0.438-1.151 0.379c-0.231-0.089-0.244-0.040-0.074 0.279 0.155 0.289 0.321 0.358 0.659 0.273 0.902-0.226 0.449 0.912-0.798 2.007-0.591 0.519-0.612 0.585-0.57 1.811 0.034 0.991-0.029 1.353-0.284 1.635-0.18 0.199-0.378 0.739-0.441 1.199-0.149 1.084-0.885 1.977-1.759 2.131l-0.655 0.116-0.468-1.181c-0.375-0.946-0.47-1.527-0.481-2.916-0.008-1.065-0.099-1.82-0.234-1.956-0.121-0.121-0.221-0.493-0.221-0.827 0-0.773-0.195-0.882-1.629-0.915-1.297-0.029-1.702-0.267-2.185-1.284-0.368-0.776-0.24-2.117 0.261-2.733 0.209-0.258 0.467-0.69 0.574-0.961 0.14-0.357 0.48-0.602 1.229-0.889 1.301-0.498 1.3-0.498 1.857 0.104 0.376 0.406 0.647 0.506 1.441 0.534 1.483 0.052 1.78 0.209 2.288 1.212 0.505 0.996 0.988 1.481 0.618 0.62-0.124-0.29-0.37-0.739-0.545-0.998-0.277-0.41-0.284-0.519-0.056-0.831 0.485-0.663 0.337-1.037-0.41-1.037-0.515 0-0.695-0.088-0.77-0.374-0.108-0.412-0.715-0.511-0.868-0.14-0.060 0.145-0.143 0.083-0.219-0.164-0.067-0.219-0.33-0.493-0.583-0.608-0.606-0.276-0.639-0.268-0.503 0.118 0.094 0.267 0.069 0.284-0.137 0.094-0.139-0.129-0.555-0.234-0.926-0.234-0.602 0-0.699 0.071-0.914 0.666-0.188 0.521-0.329 0.653-0.646 0.608-0.284-0.040-0.423-0.211-0.464-0.572-0.053-0.459 0.001-0.515 0.495-0.515 0.591 0 0.884-0.384 0.548-0.72-0.147-0.147-0.117-0.237 0.108-0.324 0.172-0.066 0.312-0.239 0.312-0.384s0.211-0.361 0.469-0.479c0.261-0.119 0.448-0.345 0.421-0.511-0.030-0.186 0.077-0.287 0.286-0.27 0.482 0.039 0.042-0.454-0.473-0.531-0.549-0.081-0.621-0.467-0.117-0.627 0.231-0.073 0.677-0.405 0.993-0.738 0.433-0.457 0.802-0.638 1.508-0.743l0.935-0.139-0.561-0.456c-1.849-1.505-4.744-2.779-6.736-2.964-0.72-0.067-1.52-0.145-1.778-0.174s-0.805-0.020-1.216 0.019zM17.288 6.447c-0.166 0.434 0.092 0.664 0.745 0.664 0.68 0 1.076-0.29 0.927-0.678-0.137-0.357-1.534-0.346-1.672 0.014zM20.658 8.717c0.063 0.163 0.114 0.415 0.114 0.561s0.126 0.265 0.281 0.265c0.344 0 0.353-0.357 0.020-0.795-0.31-0.408-0.566-0.428-0.415-0.031zM19.912 9.199c-0.083 0.134-0.051 0.165 0.082 0.082 0.119-0.073 0.216-0.17 0.216-0.216 0-0.156-0.165-0.082-0.298 0.134zM3.028 11.238c-0.581 1.261-0.843 3.334-0.731 5.791 0.167 3.657 1.212 5.944 3.976 8.702 1.612 1.608 4.056 3.274 4.904 3.342 0.34 0.027 0.52-0.732 1.004-4.251 0.2-1.451 0.196-1.477-0.282-1.975-0.266-0.278-0.484-0.586-0.484-0.685s-0.156-0.473-0.347-0.832c-0.408-0.768-0.482-1.85-0.135-1.983 0.167-0.064 0.204-0.279 0.118-0.691-0.098-0.472-0.208-0.586-0.52-0.542-0.277 0.039-0.498-0.118-0.739-0.527-0.346-0.588-0.851-0.901-2.204-1.364-0.406-0.139-0.792-0.372-0.859-0.518-0.461-1.012-0.677-1.368-0.869-1.431-0.139-0.046-0.183 0.068-0.119 0.313 0.055 0.212 0.051 0.385-0.011 0.385-0.15 0-0.867-1.419-0.871-1.723-0.002-0.133-0.209-0.437-0.461-0.675s-0.575-0.828-0.719-1.31l-0.262-0.876-0.393 0.852zM25.564 10.881c-0.44 0.514-0.229 0.674 0.991 0.751 1.13 0.072 1.442-0.206 0.731-0.65-0.789-0.493-1.358-0.526-1.722-0.101zM28.362 10.896c-0.454 0.647-0.354 1.034 0.354 1.37 0.614 0.291 0.664 0.288 1.046-0.068 0.475-0.443 0.421-1.030-0.103-1.128-0.205-0.038-0.44-0.187-0.522-0.33-0.212-0.369-0.44-0.323-0.775 0.156zM5.053 13.544c0 0.039 0.128 0.177 0.285 0.307 0.238 0.198 0.266 0.186 0.167-0.071-0.101-0.262-0.452-0.446-0.452-0.236zM29.318 14.16c-0.069 0.069-0.125 0.279-0.125 0.468 0 0.432 0.712 0.468 0.875 0.043 0.153-0.4-0.451-0.811-0.75-0.511zM10.76 15.345c0.064 0.103 0.258 0.186 0.432 0.184 0.273-0.003 0.278-0.028 0.036-0.184-0.366-0.237-0.614-0.237-0.468 0z"></path>
            <path fill="#012169" style="fill: var(--color3, #012169)"
                d="M14.55 0.311c0.129 0.052 0.339 0.052 0.468 0s0.023-0.094-0.234-0.094-0.362 0.042-0.234 0.094zM17.369 0.315c0.135 0.054 0.296 0.047 0.359-0.015s-0.048-0.106-0.246-0.098c-0.218 0.009-0.262 0.053-0.113 0.113zM13.162 0.499c0.069 0.069 0.181 0.069 0.25 0s0.012-0.125-0.125-0.125-0.193 0.056-0.125 0.125zM18.776 0.499c0.069 0.069 0.181 0.069 0.25 0s0.012-0.125-0.125-0.125-0.193 0.056-0.125 0.125zM20.46 0.873c0.069 0.069 0.181 0.069 0.25 0s0.012-0.125-0.125-0.125-0.193 0.056-0.125 0.125zM21.583 1.248c0.069 0.069 0.181 0.069 0.25 0s0.012-0.125-0.125-0.125-0.193 0.056-0.125 0.125zM7.935 2.462c-0.083 0.134-0.051 0.165 0.082 0.082 0.216-0.133 0.29-0.298 0.134-0.298-0.045 0-0.143 0.097-0.216 0.216zM19.337 2.558c0.069 0.068 0.181 0.068 0.25 0s0.012-0.125-0.125-0.125-0.193 0.056-0.125 0.125zM7.374 2.836c-0.083 0.134-0.051 0.165 0.082 0.082 0.119-0.073 0.216-0.17 0.216-0.216 0-0.156-0.165-0.082-0.298 0.134zM20.735 5.551c0.038 1.787-0.009 2.683-0.14 2.683-0.108 0-0.197 0.096-0.197 0.213s-0.139 0.315-0.309 0.439c-0.258 0.189-0.266 0.251-0.047 0.378 0.144 0.084 0.206 0.089 0.137 0.013s0.043-0.307 0.249-0.513c0.361-0.361 0.383-0.362 0.633-0.031 0.143 0.188 0.262 0.448 0.266 0.577 0.008 0.304-0.491 0.304-0.635 0-0.061-0.129-0.061 0.019-0 0.327 0.127 0.651 0.282 0.849 0.402 0.514 0.046-0.129 0.161-0.188 0.255-0.129s0.171-0.027 0.171-0.19c0-0.163 0.211-0.392 0.469-0.51 0.261-0.119 0.448-0.345 0.421-0.511-0.030-0.186 0.077-0.287 0.286-0.27 0.482 0.039 0.042-0.454-0.473-0.531-0.549-0.081-0.621-0.467-0.117-0.627 0.231-0.073 0.677-0.405 0.993-0.738 0.425-0.448 0.805-0.639 1.466-0.737 0.491-0.073 0.847-0.206 0.792-0.295-0.192-0.311-2.625-1.838-3.649-2.291l-1.029-0.455 0.056 2.683zM6.813 3.21c-0.083 0.134-0.051 0.165 0.082 0.082 0.216-0.133 0.29-0.298 0.134-0.298-0.045 0-0.143 0.097-0.216 0.216zM10.916 3.119c0.069 0.068 0.181 0.068 0.25 0s0.012-0.125-0.125-0.125-0.193 0.056-0.125 0.125zM9.357 3.956c-1.71 1.059-2.457 1.654-2.332 1.857 0.059 0.096-0.028 0.175-0.195 0.175s-0.251 0.084-0.187 0.187c0.197 0.319 0.933 0.206 1.216-0.187 0.279-0.387 0.936-0.518 0.936-0.187 0 0.103 0.126 0.187 0.281 0.187s0.281 0.084 0.281 0.187c0 0.103 0.084 0.187 0.187 0.187s0.187-0.126 0.187-0.281c0-0.154 0.126-0.281 0.281-0.281 0.156 0 0.281 0.166 0.281 0.374 0 0.206-0.095 0.374-0.21 0.374-0.145 0-0.138 0.087 0.023 0.281 0.194 0.234 0.168 0.281-0.158 0.281-0.26 0-0.357-0.089-0.29-0.264 0.081-0.212-0.030-0.203-0.568 0.047-0.526 0.244-0.659 0.406-0.622 0.759 0.047 0.449 0.12 0.509 1.17 0.971 0.309 0.136 0.62 0.274 0.693 0.308s0.156-1.247 0.187-2.845c0.031-1.598 0.056-2.901 0.056-2.895s-0.547 0.35-1.216 0.764zM25.544 3.368c0.064 0.103 0.158 0.187 0.209 0.187s0.042-0.084-0.022-0.187c-0.064-0.103-0.158-0.187-0.209-0.187s-0.042 0.084 0.022 0.187zM5.787 4.070l-0.454 0.515 0.515-0.454c0.481-0.424 0.601-0.576 0.454-0.576-0.034 0-0.265 0.232-0.515 0.515zM27.411 5.053c0.816 0.875 1.565 1.675 1.663 1.778s0.004-0.066-0.211-0.374c-0.215-0.309-0.963-1.109-1.663-1.778l-1.273-1.216 1.484 1.591zM4.754 4.912l-0.356 0.421 0.421-0.356c0.232-0.196 0.421-0.386 0.421-0.421 0-0.15-0.151-0.039-0.486 0.356zM3.572 6.316c-0.46 0.673-0.488 0.752-0.116 0.327 0.495-0.565 0.92-1.216 0.792-1.216-0.038 0-0.342 0.4-0.676 0.889zM18.789 6.953c-0.083 0.134-0.051 0.165 0.082 0.082 0.119-0.073 0.216-0.17 0.216-0.216 0-0.156-0.165-0.082-0.298 0.134zM29.287 7.298c0.064 0.103 0.158 0.187 0.209 0.187s0.042-0.084-0.022-0.187c-0.064-0.103-0.158-0.187-0.209-0.187s-0.042 0.084 0.022 0.187zM2.575 7.719c-0.417 0.639-1.112 2.040-1.044 2.107 0.033 0.033 0.372-0.523 0.752-1.235 0.687-1.284 0.82-1.681 0.292-0.873zM11.977 7.556c0 0.039 0.147 0.186 0.328 0.327 0.297 0.233 0.303 0.226 0.071-0.071-0.245-0.312-0.398-0.411-0.398-0.257zM10.955 7.847c-0.059 0.096-0.036 0.218 0.051 0.272s0.159-0.024 0.159-0.174c0-0.316-0.059-0.343-0.21-0.098zM29.848 8.234c0.16 0.309 0.332 0.561 0.384 0.561s-0.037-0.253-0.197-0.561c-0.16-0.309-0.332-0.561-0.384-0.561s0.037 0.253 0.197 0.561zM10.883 9.17c0 0.257 0.042 0.363 0.094 0.234s0.052-0.339 0-0.468c-0.052-0.129-0.094-0.023-0.094 0.234zM30.331 9.076c0 0.103 0.161 0.482 0.359 0.842s0.359 0.571 0.359 0.468c0-0.103-0.161-0.482-0.359-0.842s-0.359-0.571-0.359-0.468zM12.16 10.016c-0.13 0.157-0.2 0.322-0.156 0.366s0.183-0.084 0.309-0.285c0.272-0.435 0.181-0.483-0.153-0.081zM1.24 10.393c-0.181 0.47-0.127 0.592 0.093 0.213 0.109-0.188 0.159-0.381 0.111-0.429s-0.14 0.049-0.204 0.216zM12.14 10.994c-0.233 0.297-0.226 0.303 0.071 0.071 0.312-0.245 0.411-0.398 0.257-0.398-0.039 0-0.186 0.147-0.328 0.328zM26.339 10.791c0.129 0.052 0.339 0.052 0.468 0s0.023-0.094-0.234-0.094-0.362 0.042-0.234 0.094zM28.257 11.041c-0.11 0.206-0.158 0.374-0.107 0.374s0.184-0.168 0.294-0.374c0.11-0.206 0.158-0.374 0.107-0.374s-0.184 0.168-0.294 0.374zM29.006 10.854c0 0.137 0.056 0.193 0.125 0.125s0.069-0.181 0-0.25c-0.069-0.069-0.125-0.012-0.125 0.125zM31.064 10.854c0 0.137 0.056 0.193 0.125 0.125s0.069-0.181 0-0.25c-0.069-0.069-0.125-0.012-0.125 0.125zM27.301 11.079c0.132 0.176 0.178 0.428 0.103 0.561-0.11 0.195-0.088 0.196 0.116 0.007 0.212-0.197 0.195-0.289-0.103-0.561-0.321-0.294-0.332-0.294-0.116-0.007zM0.855 11.522c-0.069 0.274-0.089 0.535-0.045 0.579s0.137-0.144 0.205-0.418c0.069-0.274 0.089-0.535 0.045-0.579s-0.137 0.144-0.205 0.418zM3.57 11.337c0.009 0.218 0.053 0.262 0.113 0.113 0.054-0.135 0.047-0.297-0.015-0.359s-0.106 0.048-0.098 0.246zM19.961 11.166c-0.176 0.176-0.155 0.957 0.028 1.071 0.084 0.052 0.118-0.147 0.075-0.441-0.065-0.444-0.003-0.55 0.361-0.62 0.387-0.074 0.393-0.087 0.050-0.109-0.214-0.014-0.446 0.031-0.515 0.099zM21.333 11.228c0 0.137 0.056 0.193 0.125 0.125s0.069-0.181 0-0.25c-0.069-0.069-0.125-0.012-0.125 0.125zM22.737 11.228c0.064 0.103 0.158 0.187 0.209 0.187s0.042-0.084-0.022-0.187c-0.064-0.103-0.158-0.187-0.209-0.187s-0.042 0.084 0.022 0.187zM25.263 11.217c0 0.097 0.083 0.228 0.185 0.29 0.106 0.066 0.137-0.010 0.074-0.176-0.124-0.324-0.259-0.383-0.259-0.114zM23.205 11.379c0 0.098 0.126 0.282 0.281 0.411s0.281 0.175 0.281 0.103c0-0.072-0.126-0.256-0.281-0.411s-0.281-0.201-0.281-0.103zM31.251 11.415c0 0.137 0.056 0.193 0.125 0.125s0.069-0.181 0-0.25c-0.069-0.069-0.125-0.012-0.125 0.125zM2.807 11.602c0 0.137 0.056 0.193 0.125 0.125s0.068-0.181 0-0.25c-0.069-0.069-0.125-0.012-0.125 0.125zM26.448 11.54c0.069 0.069 0.181 0.069 0.25 0s0.012-0.125-0.125-0.125-0.193 0.056-0.125 0.125zM21.065 11.922c-0.101 0.267-0.080 0.288 0.105 0.105 0.128-0.127 0.185-0.278 0.128-0.336s-0.162 0.046-0.233 0.231zM22.331 11.727c0.069 0.069 0.181 0.069 0.25 0s0.012-0.125-0.125-0.125-0.193 0.056-0.125 0.125zM24.529 11.754c-0.009 0.145-0.11 0.188-0.249 0.104-0.141-0.085-0.125-0.007 0.040 0.197 0.28 0.345 0.497 0.132 0.318-0.312-0.073-0.18-0.098-0.177-0.109 0.011zM28.164 11.977c0.064 0.103 0.158 0.187 0.209 0.187s0.042-0.084-0.022-0.187c-0.064-0.103-0.158-0.187-0.209-0.187s-0.042 0.084 0.022 0.187zM31.453 12.086c0.009 0.218 0.053 0.262 0.113 0.113 0.054-0.135 0.047-0.297-0.015-0.359s-0.106 0.048-0.098 0.246zM2.62 12.164c0 0.137 0.056 0.193 0.125 0.125s0.068-0.181 0-0.25c-0.069-0.069-0.125-0.012-0.125 0.125zM11.228 12.164c0 0.137 0.056 0.193 0.125 0.125s0.069-0.181 0-0.25c-0.069-0.069-0.125-0.012-0.125 0.125zM4.045 12.403c0.064 0.183 0.296 0.425 0.515 0.537 0.342 0.175 0.36 0.168 0.127-0.052-0.15-0.141-0.382-0.383-0.515-0.537-0.211-0.244-0.228-0.238-0.127 0.052zM28.912 12.351c0.064 0.103 0.158 0.187 0.209 0.187s0.042-0.084-0.022-0.187c-0.064-0.103-0.158-0.187-0.209-0.187s-0.042 0.084 0.022 0.187zM0.591 12.725c0 0.257 0.042 0.363 0.094 0.234s0.052-0.339 0-0.468c-0.052-0.129-0.094-0.023-0.094 0.234zM22.596 12.694c0.18 0.189 0.361 0.317 0.401 0.285 0.11-0.087-0.376-0.628-0.564-0.628-0.090 0-0.017 0.154 0.163 0.343zM26.074 12.476c0.069 0.069 0.181 0.069 0.25 0s0.012-0.125-0.125-0.125-0.193 0.056-0.125 0.125zM10.93 12.754c-0.083 0.134-0.051 0.165 0.082 0.082 0.119-0.073 0.216-0.17 0.216-0.216 0-0.156-0.165-0.082-0.298 0.134zM31.655 12.912c0 0.257 0.042 0.363 0.094 0.234s0.052-0.339 0-0.468c-0.052-0.129-0.094-0.023-0.094 0.234zM2.433 12.912c0 0.137 0.056 0.193 0.125 0.125s0.068-0.181 0-0.25c-0.069-0.069-0.125-0.012-0.125 0.125zM20.46 12.85c0.069 0.069 0.181 0.069 0.25 0s0.012-0.125-0.125-0.125-0.193 0.056-0.125 0.125zM26.573 12.912c0 0.137 0.056 0.193 0.125 0.125s0.069-0.181 0-0.25c-0.069-0.069-0.125-0.012-0.125 0.125zM0.418 13.848c0 0.36 0.039 0.508 0.086 0.328s0.047-0.475 0-0.655c-0.047-0.18-0.086-0.033-0.086 0.328zM31.864 14.222c0 0.463 0.037 0.653 0.081 0.421s0.045-0.611 0-0.842c-0.045-0.232-0.081-0.042-0.081 0.421zM0.198 16.016c0.006 0.815 0.078 1.818 0.16 2.23 0.092 0.458 0.114-0.086 0.057-1.404-0.107-2.499-0.233-2.978-0.217-0.827zM31.864 17.965c0 0.463 0.037 0.653 0.081 0.421s0.045-0.611 0-0.842c-0.045-0.232-0.081-0.042-0.081 0.421zM31.467 19.865c-0.122 0.53-0.188 0.997-0.147 1.039s0.179-0.355 0.305-0.88 0.192-0.993 0.147-1.039c-0.045-0.045-0.183 0.351-0.305 0.88zM0.591 19.462c0 0.257 0.042 0.363 0.094 0.234s0.052-0.339 0-0.468c-0.052-0.129-0.094-0.023-0.094 0.234zM2.433 19.275c0 0.137 0.056 0.193 0.125 0.125s0.068-0.181 0-0.25c-0.069-0.069-0.125-0.012-0.125 0.125zM10.762 19.273c-0.066 0.106 0.010 0.137 0.176 0.074 0.324-0.124 0.383-0.259 0.114-0.259-0.097 0-0.228 0.083-0.29 0.185zM27.617 19.634c-0.288 0.3-0.479 0.658-0.424 0.795 0.077 0.194 0.103 0.189 0.114-0.022 0.008-0.149 0.241-0.507 0.518-0.795s0.461-0.525 0.409-0.525-0.329 0.246-0.617 0.546zM22.471 19.758c0.009 0.218 0.053 0.262 0.113 0.113 0.054-0.135 0.047-0.297-0.015-0.359s-0.106 0.048-0.098 0.246zM10.48 19.825c0 0.097 0.083 0.228 0.185 0.29 0.106 0.066 0.137-0.010 0.074-0.176-0.124-0.324-0.259-0.383-0.259-0.114zM29.567 19.836c0 0.137 0.056 0.193 0.125 0.125s0.069-0.181 0-0.25c-0.069-0.069-0.125-0.012-0.125 0.125zM2.62 20.023c0 0.137 0.056 0.193 0.125 0.125s0.068-0.181 0-0.25c-0.069-0.069-0.125-0.012-0.125 0.125zM0.762 20.13c-0.019 0.283 0.575 1.987 0.662 1.9 0.040-0.040-0.090-0.528-0.288-1.086s-0.366-0.924-0.374-0.814zM22.737 20.398c0.064 0.103 0.158 0.187 0.209 0.187s0.042-0.084-0.022-0.187c-0.064-0.103-0.158-0.187-0.209-0.187s-0.042 0.084 0.022 0.187zM29.38 20.398c0 0.137 0.056 0.193 0.125 0.125s0.069-0.181 0-0.25c-0.069-0.069-0.125-0.012-0.125 0.125zM2.807 20.585c0 0.137 0.056 0.193 0.125 0.125s0.068-0.181 0-0.25c-0.069-0.069-0.125-0.012-0.125 0.125zM10.48 20.574c0 0.097 0.083 0.228 0.185 0.29 0.106 0.066 0.137-0.010 0.074-0.176-0.124-0.324-0.259-0.383-0.259-0.114zM23.047 21.333c0 0.257 0.042 0.363 0.094 0.234s0.052-0.339 0-0.468c-0.052-0.129-0.094-0.023-0.094 0.234zM10.959 21.388c0.070 0.184 0.175 0.288 0.233 0.231s0-0.208-0.128-0.336c-0.185-0.183-0.206-0.162-0.105 0.105zM30.994 21.434c-0.181 0.47-0.127 0.592 0.093 0.213 0.109-0.188 0.159-0.381 0.111-0.429s-0.14 0.049-0.204 0.216zM11.243 22.106c-0.008 0.168 0.133 0.42 0.313 0.561 0.285 0.223 0.3 0.22 0.119-0.024-0.115-0.154-0.255-0.407-0.313-0.561-0.087-0.235-0.106-0.231-0.119 0.024zM22.856 22.413l-0.026 0.611-0.93-0.471c-0.511-0.259-0.971-0.471-1.022-0.471s-0.117 1.625-0.147 3.611l-0.054 3.611 1.31-0.636c1.72-0.836 3.315-1.996 4.585-3.336 0.566-0.598 0.854-0.942 0.64-0.765-0.522 0.431-0.602 0.409-0.693-0.193l-0.078-0.515-0.033 0.561c-0.047 0.79-0.904 1.731-1.707 1.872l-0.655 0.116-0.45-1.136c-0.247-0.624-0.509-1.661-0.583-2.304s-0.144-0.894-0.159-0.557zM7.774 23.329c-2.108 1.067-2.475 1.198-2.807 0.999-0.617-0.369 1.97 2.212 2.893 2.886 0.463 0.338 1.242 0.846 1.731 1.128l0.889 0.513v-3.386c0-1.862-0.063-3.382-0.14-3.376s-1.232 0.562-2.565 1.237zM30.392 22.871c-0.6 1.335-1.746 2.973-3.042 4.353-1.226 1.305-1.227 1.307-0.147 0.285 0.598-0.566 1.449-1.535 1.891-2.152 0.838-1.172 1.865-3.069 1.732-3.202-0.042-0.042-0.237 0.28-0.434 0.716zM1.497 22.339c0 0.202 0.743 1.614 0.85 1.614 0.051 0-0.087-0.358-0.308-0.795-0.434-0.86-0.542-1.024-0.542-0.819zM27.149 22.48c-0.008 0.168-0.141 0.409-0.296 0.537s-0.281 0.318-0.281 0.422c0 0.104 0.175-0.033 0.389-0.305s0.347-0.599 0.296-0.727c-0.059-0.146-0.099-0.119-0.109 0.073zM28 22.931c-0.064 0.167-0.111 0.402-0.105 0.523s0.093 0.017 0.191-0.23c0.099-0.247 0.146-0.482 0.105-0.523s-0.127 0.062-0.191 0.23zM12.207 23.766c0 0.36 0.039 0.508 0.086 0.328s0.047-0.475 0-0.655c-0.047-0.18-0.086-0.033-0.086 0.328zM2.75 24.734c0.186 0.326 1.054 1.322 1.929 2.214 1.247 1.271 1.304 1.315 0.264 0.202-0.73-0.78-1.562-1.776-1.849-2.214-0.611-0.93-0.832-1.061-0.343-0.202zM12.020 25.45c0 0.36 0.039 0.508 0.086 0.328s0.047-0.475 0-0.655c-0.047-0.18-0.086-0.033-0.086 0.328zM11.646 27.322c0 0.36 0.039 0.508 0.086 0.328s0.047-0.475 0-0.655c-0.047-0.18-0.086-0.033-0.086 0.328zM11.437 28.476c-0.012 0.274-0.127 0.541-0.256 0.593-0.183 0.074-0.182 0.098 0.006 0.109 0.297 0.018 0.476-0.412 0.359-0.863-0.059-0.228-0.095-0.176-0.109 0.161zM25.613 28.772c-0.233 0.297-0.226 0.303 0.071 0.071 0.312-0.245 0.411-0.398 0.257-0.398-0.039 0-0.186 0.147-0.328 0.328zM6.643 28.819c0.064 0.103 0.158 0.187 0.209 0.187s0.042-0.084-0.022-0.187c-0.064-0.103-0.158-0.187-0.209-0.187s-0.042 0.084 0.022 0.187zM24.965 29.222c-0.083 0.134-0.051 0.165 0.082 0.082 0.119-0.073 0.216-0.17 0.216-0.216 0-0.156-0.165-0.082-0.298 0.134zM24.403 29.596c-0.083 0.134-0.051 0.165 0.082 0.082 0.119-0.073 0.216-0.17 0.216-0.216 0-0.156-0.165-0.082-0.298 0.134zM19.15 29.692c0.069 0.069 0.181 0.069 0.25 0s0.012-0.125-0.125-0.125-0.193 0.056-0.125 0.125zM8.702 30.129c0.064 0.103 0.158 0.187 0.209 0.187s0.042-0.084-0.022-0.187c-0.064-0.103-0.158-0.187-0.209-0.187s-0.042 0.084 0.022 0.187zM11.103 31.189c0.069 0.069 0.181 0.069 0.25 0s0.012-0.125-0.125-0.125-0.193 0.056-0.125 0.125zM13.349 31.751c0.069 0.069 0.181 0.069 0.25 0s0.012-0.125-0.125-0.125-0.193 0.056-0.125 0.125zM18.589 31.751c0.069 0.069 0.181 0.069 0.25 0s0.012-0.125-0.125-0.125-0.193 0.056-0.125 0.125zM15.205 31.942c0.18 0.047 0.475 0.047 0.655 0s0.033-0.086-0.328-0.086-0.508 0.039-0.328 0.086zM16.515 31.942c0.18 0.047 0.475 0.047 0.655 0s0.033-0.086-0.328-0.086-0.508 0.039-0.328 0.086z"></path>
            <path fill="#c8102e" style="fill: var(--color4, #c8102e)"
                d="M17.84 0.312c-0.069-0.069-0.012-0.125 0.125-0.125s0.193 0.056 0.125 0.125c-0.069 0.069-0.181 0.069-0.25 0zM15.251 2.196c0.794-0.064 2.34 0.017 3.041 0.159 0.403 0.081 0.421 0.166 0.421 1.942v1.856l-0.702 0.058c-0.558 0.046-0.702 0.135-0.702 0.432s0.144 0.386 0.702 0.432l0.702 0.058v5.966h0.574c0.508 0 0.56 0.048 0.446 0.421-0.070 0.232-0.288 0.597-0.485 0.812-0.468 0.513-0.733 1.472-0.63 2.279 0.076 0.591 0.866 1.887 1.18 1.934 0.072 0.011 0.636 0.035 1.254 0.054 1.257 0.039 1.597 0.176 1.575 0.639-0.009 0.195-0.051 0.227-0.109 0.083-0.067-0.165-0.641-0.234-1.95-0.234h-1.856v10.623l-0.421 0.113c-0.697 0.187-3.563 0.132-4.664-0.089-0.976-0.196-1.026-0.233-0.937-0.702 0.151-0.794 0.677-1.599 1.217-1.862 0.275-0.134 0.501-0.327 0.501-0.429 0-0.202 0.286-0.585 0.795-1.066 0.18-0.17 0.328-0.458 0.328-0.64s0.293-0.521 0.651-0.754c0.622-0.404 1.033-1.134 1.033-1.833 0-0.179 0.211-0.463 0.468-0.631 0.892-0.584 0.303-1.982-0.726-1.724-0.638 0.16-1.558-0.401-1.683-1.027-0.064-0.319-0.289-0.575-0.623-0.711-0.288-0.117-0.776-0.351-1.085-0.52s-0.706-0.376-0.883-0.461c-0.348-0.167-1.188 0.076-1.296 0.375-0.037 0.101-0.296 0.139-0.577 0.085-0.368-0.072-0.574-0.275-0.738-0.729-0.125-0.346-0.267-0.59-0.315-0.542s-0.198-0.005-0.334-0.118c-0.179-0.149-0.195-0.303-0.057-0.56 0.24-0.449-0.054-0.471-0.489-0.037-0.299 0.299-0.339 0.293-0.668-0.114-0.376-0.464-0.475-1.602-0.157-1.798 0.106-0.066 0.618-0.159 1.138-0.207 0.834-0.077 0.956-0.043 1.045 0.296 0.055 0.211 0.18 0.383 0.278 0.383s0.124-0.168 0.059-0.374c-0.249-0.786 0.015-1.034 1.027-0.964l0.938 0.065v-1.247c0-1.162 0.026-1.239 0.374-1.128 0.206 0.065 0.374 0.039 0.374-0.058 0-0.255-0.48-0.616-0.625-0.471-0.068 0.068-0.123-0.017-0.123-0.189 0-0.21 0.157-0.312 0.48-0.312 0.401 0 1.087-0.243 1.368-0.485 0.135-0.116-1.175-1.105-1.464-1.105-0.247 0-0.298-0.41-0.342-2.746l-0.052-2.746 0.988-0.196c0.543-0.108 1.324-0.223 1.736-0.256zM10.93 7.514c-0.083 0.134-0.051 0.165 0.082 0.082 0.216-0.133 0.29-0.298 0.134-0.298-0.045 0-0.143 0.097-0.216 0.216zM10.596 9.083c-0.181 0.47-0.127 0.592 0.093 0.213 0.109-0.188 0.159-0.381 0.111-0.429s-0.14 0.049-0.204 0.216zM3.29 10.642c-0.081 0.13-0.096 0.288-0.034 0.349 0.167 0.168 0.35-0.079 0.26-0.35-0.063-0.19-0.107-0.19-0.225 0.001zM25.762 10.604c-0.227 0.227-0.129 0.427 0.156 0.317 0.154-0.059 0.281-0.183 0.281-0.275 0-0.196-0.258-0.221-0.437-0.042zM20.959 11.041c0 0.137 0.056 0.193 0.125 0.125s0.069-0.181 0-0.25c-0.069-0.069-0.125-0.012-0.125 0.125zM23.298 11.228c0.186 0.206 0.368 0.374 0.405 0.374s-0.039-0.168-0.168-0.374-0.311-0.374-0.405-0.374c-0.094 0-0.019 0.168 0.168 0.374zM11.865 11.444c-0.083 0.134-0.051 0.165 0.082 0.082 0.119-0.073 0.216-0.17 0.216-0.216 0-0.156-0.165-0.082-0.298 0.134zM28.070 11.602c0 0.137 0.056 0.193 0.125 0.125s0.069-0.181 0-0.25c-0.069-0.069-0.125-0.012-0.125 0.125zM20.273 12.476c0.069 0.069 0.181 0.069 0.25 0s0.012-0.125-0.125-0.125-0.193 0.056-0.125 0.125zM25.7 12.476c0.069 0.069 0.181 0.069 0.25 0s0.012-0.125-0.125-0.125-0.193 0.056-0.125 0.125zM23.018 13.131c0 0.181 1.079 0.392 1.301 0.254 0.103-0.064 0.526-0.024 0.941 0.087 0.636 0.171 0.826 0.345 1.217 1.118 0.255 0.503 0.55 0.968 0.656 1.034 0.24 0.148-0.136-0.751-0.6-1.436-0.213-0.314-0.269-0.546-0.15-0.619 0.105-0.065 0.191-0.218 0.191-0.341 0-0.157-0.527-0.223-1.778-0.223-0.978 0-1.778 0.056-1.778 0.126zM2.366 13.801c-0.064 0.386-0.116 1.418-0.116 2.292s0.052 1.907 0.116 2.292l0.116 0.702h8.584l-0.059-0.515c-0.047-0.406-0.144-0.503-0.464-0.459-0.288 0.040-0.505-0.113-0.749-0.527-0.346-0.588-0.851-0.901-2.204-1.364-0.406-0.139-0.792-0.372-0.859-0.518-0.461-1.012-0.677-1.368-0.869-1.431-0.141-0.047-0.186 0.081-0.127 0.359 0.090 0.421 0.085 0.423-0.203 0.066-0.163-0.201-0.397-0.643-0.519-0.982-0.22-0.607-0.242-0.617-1.377-0.617h-1.154l-0.116 0.702zM5.053 13.544c0 0.039 0.128 0.177 0.285 0.307 0.238 0.198 0.266 0.186 0.167-0.071-0.101-0.262-0.452-0.446-0.452-0.236zM29.318 14.16c-0.069 0.069-0.125 0.279-0.125 0.468 0 0.432 0.712 0.468 0.875 0.043 0.153-0.4-0.451-0.811-0.75-0.511zM10.76 15.345c0.064 0.103 0.258 0.186 0.432 0.184 0.273-0.003 0.278-0.028 0.036-0.184-0.366-0.237-0.614-0.237-0.468 0zM29.099 16.581c-0.412 0.249-0.895 0.418-1.073 0.375-0.271-0.065-0.291-0.016-0.125 0.295 0.147 0.275 0.317 0.343 0.652 0.259 0.355-0.089 0.453-0.040 0.453 0.229 0 0.188-0.124 0.505-0.275 0.705-0.408 0.54-0.352 0.644 0.348 0.644 0.43 0 0.675-0.105 0.76-0.325 0.213-0.554 0.353-2.67 0.176-2.651-0.092 0.010-0.504 0.221-0.916 0.47zM27.252 21.216c0.038 0.296 0.069 0.636 0.069 0.755s0.147 0.223 0.328 0.23c0.18 0.007 0.458 0.070 0.618 0.139 0.209 0.091 0.379-0.059 0.605-0.534l0.315-0.661h-0.919c-0.566 0-0.951-0.090-1.002-0.234-0.046-0.129-0.052 0.008-0.014 0.304zM4.435 21.631l-0.899 0.468 0.414 0.693c0.228 0.381 0.474 0.762 0.547 0.847s1.302-0.437 2.73-1.16l2.597-1.314-2.246-0.001c-2.032-0.001-2.331 0.043-3.144 0.467zM11.883 23.018c0.064 0.103 0.158 0.187 0.209 0.187s0.042-0.084-0.022-0.187c-0.064-0.103-0.158-0.187-0.209-0.187s-0.042 0.084 0.022 0.187zM26.573 23.766c0 0.137 0.056 0.193 0.125 0.125s0.069-0.181 0-0.25c-0.069-0.069-0.125-0.012-0.125 0.125z"></path>
        </symbol>
        <symbol id="icon-ua" viewBox="0 0 32 32">
            <path fill="#015bbb" style="fill: var(--color1, #015bbb)"
                d="M14.617 0.149c-0.086-0.022-0.037-0.042 0.108-0.044s0.215 0.016 0.156 0.041c-0.060 0.024-0.178 0.026-0.264 0.003zM16.681 0.146c-0.060-0.024-0.011-0.044 0.11-0.044s0.17 0.020 0.11 0.044c-0.060 0.024-0.159 0.024-0.22 0zM14.198 2.165c0.145-0.022 0.996-0.027 1.89-0.010 2.374 0.043 3.71 0.365 5.846 1.41 1.045 0.511 2.757 1.667 3.123 2.109 0.116 0.14 0.099 0.147-0.224 0.095-0.224-0.036-0.597 0.004-1.039 0.111-0.56 0.136-0.753 0.229-1.029 0.498-0.187 0.182-0.351 0.411-0.366 0.509-0.025 0.165-0.167 0.239-1.059 0.553-0.204 0.072-0.194 0.141 0.050 0.37 0.128 0.121 0.341 0.201 0.574 0.216 0.305 0.020 0.393 0.069 0.5 0.273 0.159 0.308 0.159 0.316-0.003 0.316-0.076 0-0.132-0.079-0.132-0.185 0-0.133-0.039-0.17-0.139-0.132-0.076 0.029-0.18 0.053-0.231 0.053-0.058 0-0.071 0.13-0.036 0.352 0.046 0.287 0.030 0.352-0.085 0.352-0.221 0-0.817 0.464-0.846 0.659-0.016 0.105-0.088 0.171-0.18 0.164-0.085-0.007-0.154 0.027-0.154 0.076 0 0.051-0.097 0.063-0.231 0.030l-0.231-0.058 0.229 0.272c0.281 0.333 0.308 0.88 0.044 0.88-0.089 0-0.162-0.037-0.162-0.083 0-0.109-0.729-0.074-0.812 0.039-0.036 0.048-0.065 0.293-0.066 0.544-0.002 0.538 0.187 0.73 0.715 0.73 0.387 0 0.593-0.218 0.831-0.88 0.147-0.408 0.178-0.438 0.454-0.438 0.163 0 0.378-0.044 0.478-0.097 0.152-0.081 0.212-0.061 0.368 0.122 0.103 0.12 0.315 0.291 0.472 0.38 0.215 0.121 0.286 0.221 0.286 0.406 0 0.234-0.058 0.277-0.352 0.257-0.073-0.005-0.044 0.036 0.064 0.090 0.166 0.084 0.222 0.068 0.371-0.111 0.096-0.116 0.176-0.26 0.178-0.32s0.048-0.11 0.103-0.11c0.055 0-0.108-0.193-0.362-0.43-0.515-0.479-0.592-0.828-0.085-0.387 0.167 0.145 0.392 0.31 0.501 0.368s0.198 0.161 0.198 0.23c0 0.148 0.336 0.815 0.444 0.882 0.121 0.075 0.246-0.249 0.197-0.509-0.041-0.212-0.019-0.241 0.18-0.241 0.188 0 0.236 0.051 0.283 0.305 0.079 0.421 0.194 0.488 0.87 0.508l0.589 0.018-0.055 0.266c-0.030 0.147-0.078 0.395-0.105 0.552-0.035 0.204-0.097 0.286-0.216 0.286-0.221 0-0.211 0.049 0.083 0.427 0.273 0.351 0.63 1.003 0.849 1.551l0.14 0.352-0.185-0.183c-0.171-0.17-0.615-0.937-0.92-1.589-0.192-0.411-0.537-0.645-0.949-0.645-0.232 0-0.39-0.052-0.463-0.151-0.092-0.125-0.146-0.134-0.317-0.050-0.397 0.196-0.603 0.213-0.88 0.075-0.152-0.076-0.32-0.138-0.373-0.138s-0.195-0.188-0.316-0.418l-0.22-0.417-0.553-0.029c-0.461-0.024-0.626 0.009-0.993 0.201-0.242 0.126-0.476 0.207-0.521 0.18s-0.241 0.056-0.436 0.185c-0.256 0.169-0.384 0.333-0.46 0.587-0.058 0.194-0.24 0.495-0.405 0.67-0.354 0.375-0.632 0.889-0.634 1.171-0.001 0.111-0.022 0.28-0.048 0.377-0.046 0.172-0.113 0.175-3.051 0.156-1.652-0.011-3.064-0.045-3.138-0.076s-0.243-0.062-0.375-0.068c-0.192-0.009-0.231 0.020-0.192 0.142 0.058 0.181 0.030 0.187-0.264 0.053-0.168-0.077-0.252-0.076-0.348 0.004-0.086 0.072-0.145 0.076-0.184 0.013-0.033-0.053-0.39-0.092-0.843-0.092-0.779 0-0.909-0.052-0.654-0.264 0.073-0.060 0.132-0.142 0.132-0.182 0-0.099-0.736 0.236-0.775 0.353-0.105 0.316-0.835-0.119-0.947-0.564-0.095-0.378 0.010-1.086 0.191-1.286 0.143-0.158 0.228-0.175 0.628-0.125 0.399 0.050 0.463 0.037 0.463-0.091 0-0.112 0.048-0.134 0.198-0.091 0.109 0.032 0.325 0.081 0.48 0.109 0.235 0.043 0.302 0.112 0.401 0.409 0.18 0.541 0.368 0.545 0.304 0.006-0.028-0.236-0.077-0.497-0.109-0.579-0.040-0.104 0.063-0.279 0.341-0.576 0.219-0.235 0.476-0.606 0.57-0.826s0.277-0.483 0.405-0.584c0.129-0.101 0.321-0.312 0.426-0.469s0.301-0.314 0.434-0.349c0.238-0.063 0.346 0.040 0.132 0.126-0.060 0.024-0.026 0.047 0.077 0.051 0.308 0.011 0.422-0.205 0.249-0.47-0.081-0.124-0.125-0.283-0.098-0.354 0.041-0.108 0.012-0.112-0.188-0.027-0.131 0.056-0.316 0.153-0.411 0.216-0.388 0.255-0.418 0.061-0.053-0.346 0.242-0.271 0.287-0.286 0.785-0.265 0.377 0.016 0.566-0.016 0.66-0.11 0.073-0.073 0.234-0.132 0.358-0.132 0.17 0 0.226-0.045 0.226-0.182 0-0.193-0.205-0.452-0.327-0.413-0.087 0.028-0.659-0.596-0.811-0.886l-0.108-0.206-0.129 0.184c-0.179 0.255-0.322 0.232-0.622-0.101-0.321-0.356-0.612-0.533-0.685-0.416-0.030 0.048-0.202 0.063-0.389 0.033-0.332-0.053-0.336-0.050-0.372 0.261-0.024 0.208 0.003 0.33 0.080 0.359 0.073 0.028 0.109 0.163 0.095 0.363-0.016 0.242-0.071 0.337-0.226 0.396-0.17 0.065-0.189 0.107-0.113 0.249 0.14 0.262 0.109 0.446-0.075 0.446-0.119 0-0.182-0.084-0.222-0.299-0.062-0.329-0.253-0.541-0.405-0.447-0.054 0.033-0.171-0.007-0.261-0.088s-0.335-0.187-0.544-0.233c-0.436-0.098-0.951-0.543-0.951-0.823 0-0.276 0.174-0.439 0.615-0.575 0.218-0.067 0.447-0.192 0.511-0.279 0.115-0.157 0.369-0.218 0.369-0.089 0 0.038-0.066 0.163-0.147 0.278-0.144 0.205-0.143 0.208 0.066 0.153 0.117-0.031 0.331-0.059 0.476-0.061 0.248-0.004 0.254-0.012 0.097-0.13-0.091-0.069-0.21-0.144-0.264-0.167-0.058-0.024-0.019-0.106 0.095-0.201 0.206-0.171 0.37-0.644 0.224-0.644-0.047 0-0.21-0.025-0.361-0.055-0.249-0.050-0.275-0.034-0.275 0.165 0 0.121-0.053 0.264-0.118 0.318-0.092 0.076-0.14 0.049-0.217-0.119-0.060-0.132-0.148-0.199-0.223-0.17-0.073 0.028-0.229-0.080-0.379-0.262-0.196-0.238-0.3-0.298-0.451-0.259-0.108 0.028-0.218 0.139-0.245 0.247-0.038 0.152-0.097 0.187-0.263 0.155-0.212-0.041-0.296 0.094-0.124 0.2 0.308 0.19-0.471 0.303-0.919 0.133-0.313-0.119-0.294-0.302 0.025-0.238 0.14 0.028 0.296 0.005 0.352-0.051 0.143-0.143 0.125-0.269-0.031-0.21-0.326 0.125-0.074-0.205 0.493-0.647 1.971-1.536 4.138-2.431 6.892-2.846zM27.121 4.923c0.189 0.193 0.363 0.352 0.387 0.352s-0.111-0.158-0.299-0.352c-0.189-0.193-0.363-0.352-0.387-0.352s0.111 0.158 0.299 0.352zM17.055 6.091c-0.275 0.138-0.339 0.537-0.125 0.774 0.218 0.241 1.433 0.246 1.65 0.007 0.208-0.229 0.184-0.594-0.050-0.757-0.24-0.168-1.159-0.183-1.475-0.024zM20.176 8.115c-0.097 0.058-0.188 0.11-0.202 0.116-0.080 0.035 0.108 0.472 0.202 0.472 0.062 0 0.137 0.063 0.166 0.139 0.075 0.196 0.069 0.213-0.078 0.213-0.073 0-0.132 0.078-0.132 0.173 0 0.118 0.042 0.157 0.132 0.122 0.073-0.028 0.132-0.007 0.132 0.047 0 0.134 0.362 0.117 0.549-0.025 0.162-0.123 0.217-0.279 0.066-0.185-0.048 0.030-0.088-0.025-0.088-0.122s-0.049-0.208-0.11-0.247c-0.162-0.103-0.344-0.46-0.284-0.556 0.029-0.048-0.013-0.058-0.1-0.025-0.116 0.045-0.138 0.024-0.095-0.089 0.031-0.081 0.048-0.145 0.037-0.142s-0.098 0.052-0.195 0.11zM19.581 8.769c0.023 0.060-0.021 0.11-0.099 0.11-0.092 0-0.141 0.076-0.141 0.22 0 0.338 0.315 0.274 0.514-0.104 0.146-0.277 0.127-0.335-0.108-0.335-0.131 0-0.193 0.041-0.166 0.11zM2.877 11.010c-0.501 1.31-0.774 2.553-0.9 4.111l-0.054 0.659 4.479-0.050-0.072-0.283c-0.039-0.156-0.097-0.396-0.128-0.534s-0.227-0.419-0.435-0.624c-0.209-0.206-0.453-0.498-0.542-0.65s-0.194-0.277-0.232-0.277c-0.111 0-0.087 0.054 0.283 0.626 0.193 0.299 0.352 0.622 0.352 0.717 0 0.159-0.016 0.162-0.195 0.044-0.234-0.155-0.499-0.608-0.823-1.409-0.166-0.41-0.287-0.593-0.392-0.593-0.337 0-0.868-1.096-0.874-1.802-0.007-0.863-0.116-0.847-0.465 0.065zM25.233 10.634c-0.346 0.679-0.204 0.875 0.528 0.731 0.239-0.047 0.458-0.062 0.487-0.033s0.079 0.056 0.112 0.060c0.032 0.004 0.128 0.038 0.213 0.075s0.252 0.043 0.371 0.013c0.189-0.047 0.205-0.080 0.126-0.251-0.142-0.305-0.519-0.537-0.882-0.543-0.224-0.004-0.389-0.069-0.514-0.203-0.101-0.109-0.202-0.198-0.223-0.198s-0.119 0.157-0.216 0.348zM28.182 10.512c-0.076 0.076-0.138 0.206-0.138 0.288s-0.079 0.218-0.176 0.301c-0.34 0.291-0.118 0.856 0.337 0.856 0.105 0 0.191 0.031 0.191 0.069 0 0.105 0.517 0.388 0.607 0.332 0.044-0.027 0.063-0.118 0.042-0.203-0.026-0.107 0.050-0.194 0.25-0.286 0.198-0.091 0.296-0.201 0.314-0.356 0.036-0.31-0.212-0.505-0.686-0.539-0.322-0.023-0.398-0.061-0.408-0.204-0.007-0.097-0.017-0.225-0.022-0.286-0.013-0.15-0.144-0.138-0.311 0.028zM21.89 11.612c0 0.214 0.205 0.184 0.248-0.037 0.017-0.087-0.028-0.147-0.11-0.147s-0.138 0.075-0.138 0.183zM28.878 14.067c-0.030 0.049-0.092 0.067-0.137 0.039s-0.082 0.070-0.082 0.218c0 0.286 0.261 0.621 0.484 0.621 0.184 0 0.484-0.319 0.484-0.514 0-0.326-0.593-0.614-0.748-0.364zM10.253 15.008c-0.132 0.034-0.091 0.085 0.207 0.254 0.385 0.218 0.706 0.275 0.706 0.125 0-0.073-0.648-0.461-0.722-0.431-0.014 0.006-0.1 0.029-0.191 0.053zM26.942 27.099l-0.436 0.462 0.462-0.436c0.254-0.24 0.462-0.448 0.462-0.462 0-0.066-0.081 0.007-0.487 0.436zM14.484 31.707c0.060 0.024 0.159 0.024 0.22 0s0.011-0.044-0.11-0.044-0.17 0.020-0.11 0.044zM16.815 31.709c0.086 0.022 0.204 0.021 0.264-0.003s-0.010-0.042-0.156-0.041c-0.145 0.002-0.194 0.021-0.108 0.044z"></path>
            <path fill="#f9d204" style="fill: var(--color2, #f9d204)"
                d="M4.523 4.769l-0.348 0.374 0.374-0.348c0.347-0.323 0.414-0.4 0.348-0.4-0.014 0-0.183 0.168-0.374 0.374zM1.962 15.879c-0.079 0.206 0.126 2.147 0.32 3.030 0.574 2.61 1.759 4.743 3.736 6.723 1.439 1.441 2.919 2.442 4.606 3.114 0.346 0.138 0.45 0.045 0.452-0.405 0.001-0.151 0.061-0.443 0.133-0.649s0.126-0.538 0.118-0.739c-0.008-0.2 0.039-0.462 0.104-0.582 0.125-0.231 0.229-1.063 0.315-2.511l0.053-0.887-0.398-0.326c-0.334-0.273-0.427-0.422-0.578-0.92-0.099-0.327-0.301-0.761-0.449-0.964-0.213-0.294-0.25-0.405-0.179-0.537 0.049-0.092 0.066-0.283 0.037-0.425-0.060-0.298 0.166-0.811 0.357-0.811 0.097 0 0.113-0.107 0.075-0.506-0.051-0.526-0.16-0.759-0.272-0.579-0.103 0.166-0.545 0.025-0.701-0.224-0.503-0.804-1.070-1.213-2.087-1.505-0.193-0.055-0.431-0.133-0.527-0.172s-0.287-0.115-0.422-0.17c-0.159-0.064-1.020-0.099-2.442-0.099-1.944 0-2.203 0.016-2.251 0.142zM8.233 15.872c0.058 0.15 0.22 0.132 0.274-0.031 0.019-0.058-0.045-0.104-0.146-0.104-0.126 0-0.165 0.041-0.128 0.136zM9.001 15.862c-0.027 0.069-0.035 0.217-0.019 0.33 0.024 0.171 0.081 0.204 0.351 0.204 0.304 0 0.325 0.018 0.374 0.328 0.084 0.527 0.32 0.946 0.533 0.946 0.102 0 0.235-0.049 0.294-0.108 0.086-0.086 0.119-0.068 0.16 0.088 0.070 0.267 0.198 0.247 0.3-0.047 0.081-0.232 0.56-0.539 0.67-0.429 0.028 0.028 0.127 0.009 0.221-0.041 0.138-0.074 0.211-0.047 0.388 0.144 0.176 0.19 0.278 0.228 0.53 0.199 0.27-0.031 0.371 0.016 0.738 0.346 0.252 0.226 0.534 0.396 0.692 0.416 0.147 0.019 0.307 0.059 0.357 0.090 0.165 0.102 0.371 0.593 0.385 0.915 0.012 0.284 0.038 0.317 0.26 0.321 0.136 0.002 0.278 0.054 0.316 0.115s0.123 0.098 0.19 0.084c0.070-0.015 0.135 0.058 0.152 0.171 0.036 0.235 0.027 0.233 0.427 0.066 0.398-0.166 0.589-0.166 0.912 0.002 0.747 0.386 0.659 1.431-0.15 1.769-0.27 0.113-0.293 0.153-0.293 0.514 0 0.638-0.299 1.307-0.704 1.575-0.191 0.126-0.381 0.23-0.423 0.23-0.16 0-0.367 0.333-0.367 0.591 0 0.302-0.202 0.595-0.522 0.753-0.123 0.061-0.245 0.224-0.286 0.382-0.039 0.152-0.17 0.34-0.291 0.42-0.126 0.083-0.22 0.228-0.22 0.34 0 0.187-0.125 0.274-0.646 0.449-0.089 0.030-0.183 0.134-0.208 0.23s-0.101 0.175-0.167 0.175c-0.067 0-0.122 0.083-0.122 0.185s-0.099 0.303-0.22 0.446c-0.211 0.251-0.315 0.756-0.132 0.643 0.167-0.103 0.087 0.079-0.137 0.313l-0.225 0.235 0.409 0.103c1.464 0.369 3.756 0.464 5.375 0.224 3.507-0.521 6.77-2.478 8.925-5.353 0.465-0.621 0.594-0.86 0.615-1.143 0.017-0.236 0.065-0.349 0.14-0.334 0.066 0.014 0.103-0.042 0.088-0.132-0.017-0.099 0.030-0.156 0.128-0.156 0.278-0.002 1.009-1.649 1.384-3.118 0.217-0.851 0.436-2.376 0.438-3.058l0.002-0.462-0.418 0.29c-0.444 0.308-1.414 0.767-1.615 0.766-0.142-0.001-0.485-0.503-0.567-0.829-0.031-0.125-0.099-0.253-0.15-0.284-0.055-0.034-0.073-0.007-0.044 0.067 0.027 0.068 0.12 0.302 0.206 0.52s0.258 0.542 0.383 0.721c0.227 0.325 0.228 0.325 0.732 0.273l0.505-0.052-0.096 0.298c-0.199 0.617-0.356 0.862-1.037 1.623-0.657 0.735-0.703 0.812-0.757 1.28-0.032 0.274-0.020 0.571 0.026 0.661 0.275 0.536 0.135 1.359-0.294 1.727-0.191 0.164-0.253 0.331-0.349 0.926-0.099 0.618-0.161 0.776-0.416 1.058-0.165 0.182-0.393 0.498-0.508 0.702-0.136 0.241-0.286 0.387-0.432 0.418-0.123 0.026-0.407 0.090-0.63 0.143-0.482 0.113-0.693 0.053-0.693-0.198 0-0.101-0.134-0.508-0.298-0.904s-0.39-1.037-0.504-1.424c-0.204-0.696-0.217-0.907-0.151-2.418 0.026-0.602 0.007-0.691-0.217-1.022-0.264-0.39-0.277-0.469-0.186-1.108 0.066-0.463 0.112-0.423-0.675-0.596-0.357-0.079-0.633-0.084-1.003-0.020-0.669 0.115-1.056 0.005-1.459-0.418-0.435-0.456-0.716-1.073-0.747-1.64-0.014-0.26-0.051-0.513-0.081-0.562-0.066-0.107-5.63-0.106-6.309 0.001-0.294 0.046-0.525 0.037-0.666-0.028-0.166-0.075-0.225-0.073-0.253 0.010-0.043 0.129-0.373 0.148-0.373 0.021 0-0.052-0.309-0.088-0.75-0.088-0.569 0-0.762 0.030-0.798 0.125zM4.527 27.077c0.238 0.242 0.453 0.44 0.477 0.44s-0.151-0.198-0.389-0.44c-0.238-0.242-0.453-0.44-0.477-0.44s0.151 0.198 0.389 0.44z"></path>
            <path fill="#041e39" style="fill: var(--color3, #041e39)"
                d="M14.254 0.183c7.352-0.709 14.256 3.804 16.552 10.821 0.579 1.77 0.71 2.678 0.71 4.908 0 1.721-0.027 2.109-0.204 2.985-0.524 2.589-1.683 5.065-3.273 6.993-1.171 1.419-2.701 2.741-4.183 3.613-4.57 2.69-10.163 2.939-14.9 0.664-4.459-2.142-7.625-6.211-8.657-11.128-0.308-1.467-0.385-3.796-0.174-5.23 0.516-3.501 1.875-6.313 4.26-8.819 2.562-2.692 6.171-4.45 9.868-4.807zM14.198 2.165c-2.755 0.415-4.921 1.31-6.892 2.846-0.567 0.442-0.818 0.772-0.493 0.647 0.156-0.060 0.175 0.066 0.031 0.21-0.056 0.056-0.212 0.078-0.352 0.051-0.319-0.064-0.339 0.119-0.025 0.238 0.447 0.17 1.227 0.057 0.919-0.133-0.171-0.106-0.088-0.241 0.124-0.2 0.166 0.032 0.225-0.003 0.263-0.155 0.027-0.108 0.137-0.219 0.245-0.247 0.151-0.039 0.255 0.020 0.451 0.259 0.15 0.182 0.306 0.29 0.379 0.262 0.075-0.029 0.163 0.038 0.223 0.17 0.077 0.169 0.126 0.195 0.217 0.119 0.065-0.054 0.118-0.197 0.118-0.318 0-0.2 0.026-0.215 0.275-0.165 0.151 0.030 0.314 0.055 0.361 0.055 0.146 0-0.018 0.473-0.224 0.644-0.114 0.095-0.153 0.177-0.095 0.201 0.054 0.022 0.172 0.097 0.264 0.167 0.156 0.118 0.15 0.126-0.097 0.13-0.145 0.002-0.359 0.030-0.476 0.061-0.208 0.056-0.21 0.053-0.066-0.153 0.081-0.115 0.147-0.24 0.147-0.278 0-0.129-0.254-0.068-0.369 0.089-0.063 0.086-0.293 0.212-0.511 0.279-0.441 0.136-0.615 0.298-0.615 0.575 0 0.28 0.515 0.725 0.951 0.823 0.209 0.047 0.454 0.152 0.544 0.233s0.208 0.121 0.261 0.088c0.151-0.094 0.343 0.118 0.405 0.447 0.040 0.215 0.103 0.299 0.222 0.299 0.184 0 0.215-0.184 0.075-0.446-0.076-0.142-0.057-0.184 0.113-0.249 0.155-0.059 0.21-0.155 0.226-0.396 0.014-0.2-0.022-0.335-0.095-0.363-0.077-0.030-0.104-0.151-0.080-0.359 0.036-0.311 0.041-0.314 0.372-0.261 0.187 0.030 0.359 0.015 0.389-0.033 0.072-0.117 0.364 0.059 0.685 0.416 0.3 0.333 0.444 0.356 0.622 0.101l0.129-0.184 0.108 0.206c0.152 0.29 0.724 0.914 0.811 0.886 0.122-0.039 0.327 0.22 0.327 0.413 0 0.137-0.056 0.182-0.226 0.182-0.124 0-0.286 0.060-0.358 0.132-0.094 0.094-0.284 0.126-0.66 0.11-0.498-0.021-0.543-0.006-0.785 0.265-0.364 0.408-0.335 0.601 0.053 0.346 0.095-0.063 0.28-0.16 0.411-0.216 0.2-0.086 0.23-0.082 0.188 0.027-0.027 0.071 0.017 0.23 0.098 0.354 0.174 0.265 0.059 0.481-0.249 0.47-0.103-0.004-0.138-0.027-0.077-0.051 0.214-0.086 0.106-0.189-0.132-0.126-0.133 0.035-0.328 0.193-0.434 0.349s-0.298 0.368-0.426 0.469c-0.129 0.101-0.311 0.364-0.405 0.584s-0.351 0.592-0.57 0.826c-0.278 0.297-0.381 0.472-0.341 0.576 0.032 0.082 0.081 0.343 0.109 0.579 0.064 0.538-0.124 0.534-0.304-0.006-0.099-0.297-0.167-0.366-0.401-0.409-0.155-0.028-0.371-0.077-0.48-0.109-0.15-0.044-0.198-0.022-0.198 0.091 0 0.128-0.064 0.14-0.463 0.091-0.4-0.050-0.485-0.033-0.628 0.125-0.178 0.197-0.286 0.907-0.193 1.276 0.066 0.261 0.735 0.954 0.852 0.882 0.044-0.027 0.080-0.125 0.080-0.217 0-0.112 0.123-0.222 0.374-0.334 0.435-0.193 0.509-0.175 0.285 0.072-0.098 0.109-0.163 0.321-0.168 0.55-0.008 0.372-0.007 0.373 0.314 0.373 0.304 0 0.325 0.018 0.374 0.328 0.084 0.527 0.32 0.946 0.533 0.946 0.102 0 0.235-0.049 0.294-0.108 0.086-0.086 0.119-0.068 0.16 0.088 0.070 0.267 0.198 0.247 0.3-0.047 0.081-0.232 0.56-0.539 0.67-0.429 0.028 0.028 0.127 0.009 0.221-0.041 0.138-0.074 0.211-0.047 0.388 0.144 0.176 0.19 0.278 0.228 0.53 0.199 0.27-0.031 0.371 0.016 0.738 0.346 0.252 0.226 0.534 0.396 0.692 0.416 0.147 0.019 0.307 0.059 0.357 0.090 0.165 0.102 0.371 0.593 0.385 0.915 0.012 0.284 0.038 0.317 0.26 0.321 0.136 0.002 0.278 0.054 0.316 0.115s0.123 0.098 0.19 0.084c0.070-0.015 0.135 0.058 0.152 0.171 0.036 0.235 0.027 0.233 0.427 0.066 0.398-0.166 0.589-0.166 0.912 0.002 0.747 0.386 0.659 1.431-0.15 1.769-0.27 0.113-0.293 0.153-0.293 0.514 0 0.638-0.299 1.307-0.704 1.575-0.191 0.126-0.381 0.23-0.423 0.23-0.16 0-0.367 0.333-0.367 0.591 0 0.302-0.202 0.595-0.522 0.753-0.123 0.061-0.245 0.224-0.286 0.382-0.039 0.152-0.17 0.34-0.291 0.42-0.126 0.083-0.22 0.228-0.22 0.34 0 0.187-0.125 0.274-0.646 0.449-0.089 0.030-0.183 0.134-0.208 0.23s-0.101 0.175-0.167 0.175c-0.067 0-0.122 0.083-0.122 0.185s-0.099 0.303-0.22 0.446c-0.211 0.251-0.315 0.756-0.132 0.643 0.167-0.103 0.087 0.079-0.137 0.313l-0.225 0.235 0.409 0.103c1.464 0.369 3.756 0.464 5.375 0.224 3.507-0.521 6.77-2.478 8.925-5.353 0.465-0.621 0.594-0.86 0.615-1.143 0.017-0.236 0.065-0.349 0.14-0.334 0.066 0.014 0.103-0.042 0.088-0.132-0.017-0.099 0.030-0.156 0.128-0.156 0.278-0.002 1.009-1.649 1.384-3.118 0.217-0.851 0.436-2.376 0.438-3.058l0.002-0.462-0.418 0.29c-0.444 0.308-1.412 0.767-1.618 0.767-0.157 0-0.4-0.404-0.712-1.187-0.314-0.788-0.643-1.41-0.958-1.815-0.294-0.378-0.304-0.427-0.083-0.427 0.119 0 0.18-0.082 0.216-0.286 0.027-0.157 0.074-0.406 0.105-0.552l0.055-0.266-0.589-0.018c-0.677-0.020-0.791-0.087-0.87-0.508-0.048-0.254-0.095-0.305-0.283-0.305-0.199 0-0.22 0.029-0.18 0.241 0.050 0.26-0.076 0.584-0.197 0.509-0.108-0.067-0.444-0.734-0.444-0.882 0-0.069-0.089-0.173-0.198-0.23s-0.334-0.223-0.501-0.368c-0.507-0.44-0.43-0.091 0.085 0.387 0.254 0.236 0.417 0.43 0.362 0.43s-0.102 0.050-0.103 0.11c-0.002 0.060-0.082 0.204-0.178 0.32-0.149 0.179-0.204 0.195-0.371 0.111-0.108-0.054-0.136-0.095-0.064-0.090 0.293 0.020 0.352-0.022 0.352-0.257 0-0.185-0.070-0.284-0.286-0.406-0.157-0.089-0.37-0.259-0.472-0.38-0.156-0.183-0.216-0.203-0.368-0.122-0.1 0.053-0.315 0.097-0.478 0.097-0.276 0-0.307 0.030-0.454 0.438-0.238 0.663-0.444 0.88-0.831 0.88-0.528 0-0.717-0.192-0.715-0.73 0.001-0.251 0.030-0.496 0.066-0.544 0.083-0.113 0.812-0.148 0.812-0.039 0 0.045 0.073 0.083 0.162 0.083 0.264 0 0.236-0.547-0.044-0.88l-0.229-0.272 0.231 0.058c0.134 0.034 0.231 0.021 0.231-0.030 0-0.048 0.069-0.082 0.154-0.076 0.092 0.007 0.164-0.059 0.18-0.164 0.029-0.195 0.625-0.659 0.846-0.659 0.115 0 0.131-0.064 0.085-0.352-0.036-0.222-0.022-0.352 0.036-0.352 0.051 0 0.155-0.024 0.231-0.053 0.1-0.038 0.139-0.001 0.139 0.132 0 0.106 0.056 0.185 0.132 0.185 0.162 0 0.162-0.009 0.003-0.316-0.106-0.205-0.194-0.253-0.5-0.273-0.233-0.016-0.446-0.096-0.574-0.216-0.244-0.229-0.254-0.299-0.050-0.37 0.892-0.314 1.035-0.388 1.059-0.553 0.015-0.097 0.179-0.326 0.366-0.509 0.276-0.269 0.469-0.363 1.029-0.498 0.442-0.107 0.815-0.147 1.039-0.111 0.323 0.052 0.34 0.045 0.224-0.095-0.366-0.442-2.078-1.597-3.123-2.109-2.136-1.045-3.472-1.367-5.846-1.41-0.895-0.016-1.745-0.011-1.89 0.010zM17.055 6.091c-0.275 0.138-0.339 0.537-0.125 0.774 0.218 0.241 1.433 0.246 1.65 0.007 0.208-0.229 0.184-0.594-0.050-0.757-0.24-0.168-1.159-0.183-1.475-0.024zM20.176 8.115c-0.097 0.058-0.188 0.11-0.202 0.116-0.080 0.035 0.108 0.472 0.202 0.472 0.062 0 0.137 0.063 0.166 0.139 0.075 0.196 0.069 0.213-0.078 0.213-0.073 0-0.132 0.078-0.132 0.173 0 0.118 0.042 0.157 0.132 0.122 0.073-0.028 0.132-0.007 0.132 0.047 0 0.134 0.362 0.117 0.549-0.025 0.162-0.123 0.217-0.279 0.066-0.185-0.048 0.030-0.088-0.025-0.088-0.122s-0.049-0.208-0.11-0.247c-0.162-0.103-0.344-0.46-0.284-0.556 0.029-0.048-0.013-0.058-0.1-0.025-0.116 0.045-0.138 0.024-0.095-0.089 0.031-0.081 0.048-0.145 0.037-0.142s-0.098 0.052-0.195 0.11zM19.581 8.769c0.023 0.060-0.021 0.11-0.099 0.11-0.092 0-0.141 0.076-0.141 0.22 0 0.338 0.315 0.274 0.514-0.104 0.146-0.277 0.127-0.335-0.108-0.335-0.131 0-0.193 0.041-0.166 0.11zM2.879 11.006c-1.615 4.221-1.092 8.818 1.439 12.643 0.746 1.127 2.555 2.939 3.678 3.684 0.771 0.512 1.932 1.136 2.628 1.413 0.346 0.138 0.45 0.045 0.452-0.405 0.001-0.151 0.061-0.443 0.133-0.649s0.126-0.538 0.118-0.739c-0.008-0.2 0.039-0.462 0.104-0.582 0.125-0.231 0.229-1.063 0.315-2.511l0.053-0.887-0.398-0.326c-0.334-0.273-0.427-0.422-0.578-0.92-0.099-0.327-0.301-0.761-0.449-0.964-0.213-0.294-0.25-0.405-0.179-0.537 0.049-0.092 0.066-0.283 0.037-0.425-0.060-0.298 0.166-0.811 0.357-0.811 0.097 0 0.113-0.107 0.075-0.506-0.051-0.526-0.16-0.759-0.272-0.579-0.103 0.166-0.545 0.025-0.701-0.224-0.503-0.804-1.070-1.213-2.087-1.505-0.835-0.239-1.216-0.466-1.286-0.763-0.032-0.137-0.084-0.361-0.115-0.499s-0.228-0.419-0.436-0.624c-0.209-0.206-0.453-0.498-0.543-0.65s-0.194-0.277-0.232-0.277c-0.111 0-0.087 0.054 0.283 0.626 0.193 0.299 0.352 0.622 0.352 0.717 0 0.159-0.016 0.162-0.195 0.044-0.234-0.155-0.499-0.608-0.823-1.409-0.166-0.41-0.287-0.593-0.392-0.593-0.337 0-0.868-1.096-0.874-1.802-0.007-0.862-0.116-0.847-0.463 0.061zM25.233 10.634c-0.346 0.679-0.204 0.875 0.528 0.731 0.239-0.047 0.458-0.062 0.487-0.033s0.079 0.056 0.112 0.060c0.032 0.004 0.128 0.038 0.213 0.075s0.252 0.043 0.371 0.013c0.189-0.047 0.205-0.080 0.126-0.251-0.142-0.305-0.519-0.537-0.882-0.543-0.224-0.004-0.389-0.069-0.514-0.203-0.101-0.109-0.202-0.198-0.223-0.198s-0.119 0.157-0.216 0.348zM28.182 10.512c-0.076 0.076-0.138 0.206-0.138 0.288s-0.079 0.218-0.176 0.301c-0.34 0.291-0.118 0.856 0.337 0.856 0.105 0 0.191 0.031 0.191 0.069 0 0.105 0.517 0.388 0.607 0.332 0.044-0.027 0.063-0.118 0.042-0.203-0.026-0.107 0.050-0.194 0.25-0.286 0.198-0.091 0.296-0.201 0.314-0.356 0.036-0.31-0.212-0.505-0.686-0.539-0.322-0.023-0.398-0.061-0.408-0.204-0.007-0.097-0.017-0.225-0.022-0.286-0.013-0.15-0.144-0.138-0.311 0.028zM21.89 11.612c0 0.214 0.205 0.184 0.248-0.037 0.017-0.087-0.028-0.147-0.11-0.147s-0.138 0.075-0.138 0.183zM20.723 12.44c-0.231 0.125-0.457 0.204-0.502 0.176s-0.242 0.055-0.437 0.184c-0.256 0.169-0.384 0.333-0.46 0.587-0.058 0.194-0.24 0.495-0.405 0.67-0.535 0.567-0.657 0.915-0.667 1.9-0.008 0.76 0.020 0.937 0.201 1.306 0.282 0.572 0.775 1.073 1.161 1.179 0.208 0.057 0.489 0.057 0.826-0.001 0.37-0.064 0.646-0.058 1.003 0.020 0.787 0.173 0.742 0.133 0.675 0.596-0.092 0.639-0.078 0.718 0.186 1.108 0.224 0.331 0.243 0.421 0.217 1.022-0.066 1.511-0.053 1.722 0.151 2.418 0.114 0.387 0.34 1.027 0.504 1.424s0.298 0.803 0.298 0.904c0 0.251 0.211 0.311 0.693 0.198 0.223-0.052 0.507-0.117 0.63-0.143 0.146-0.031 0.297-0.176 0.432-0.418 0.114-0.204 0.343-0.519 0.508-0.702 0.255-0.282 0.317-0.44 0.416-1.058 0.095-0.595 0.158-0.762 0.349-0.926 0.429-0.369 0.569-1.192 0.294-1.727-0.046-0.089-0.057-0.387-0.026-0.661 0.054-0.468 0.1-0.546 0.757-1.28 0.681-0.762 0.838-1.007 1.037-1.623l0.096-0.298-0.505 0.052c-0.505 0.052-0.506 0.051-0.732-0.273-0.125-0.179-0.319-0.562-0.432-0.853s-0.263-0.595-0.334-0.678c-0.13-0.153-0.613-1.022-0.852-1.533-0.192-0.411-0.537-0.645-0.949-0.645-0.232 0-0.39-0.052-0.463-0.151-0.092-0.125-0.146-0.134-0.317-0.050-0.397 0.196-0.603 0.213-0.88 0.075-0.152-0.076-0.32-0.138-0.373-0.138s-0.195-0.188-0.316-0.418l-0.22-0.417-0.571-0.025c-0.477-0.021-0.641 0.012-0.992 0.201zM28.878 14.067c-0.030 0.049-0.092 0.067-0.137 0.039s-0.082 0.070-0.082 0.218c0 0.286 0.261 0.621 0.484 0.621 0.184 0 0.484-0.319 0.484-0.514 0-0.326-0.593-0.614-0.748-0.364zM10.253 15.008c-0.132 0.034-0.091 0.085 0.207 0.254 0.385 0.218 0.706 0.275 0.706 0.125 0-0.073-0.648-0.461-0.722-0.431-0.014 0.006-0.1 0.029-0.191 0.053zM11.457 15.692c0.016 0.048 0.184 0.1 0.374 0.116 0.272 0.022 0.322 0.005 0.239-0.080-0.128-0.13-0.653-0.161-0.612-0.036z"></path>
        </symbol>
        <symbol id="icon-arrow-right" viewBox="0 0 32 32">
            <path d="M6.666 16h18.668M16 25.334l9.332-9.334-9.332-9.334"></path>
        </symbol>
        <symbol id="icon-arrow-left" viewBox="0 0 32 32">
            <path d="M25.334 16h-18.668M16 25.334l-9.334-9.334 9.334-9.334"></path>
        </symbol>
        <!-- <symbol id="icon-search" viewBox="0 0 32 32"> -->
        <!-- <path d="M14.666 25.334c5.891 0 10.667-4.776
        10.667-10.667s-4.776-10.667-10.667-10.667v0c-5.891 0-10.667 4.776-10.667 10.667s4.776 10.667
        10.667 10.667v0zM28 28l-5.8-5.8"></path> -->
        <symbol id="icon-search" viewBox="0 0 16 16">
            <path
                d="M7.33333 12.6667C10.2789 12.6667 12.6667 10.2789 12.6667 7.33333C12.6667 4.38781 10.2789 2 7.33333 2C4.38781 2 2 4.38781 2 7.33333C2 10.2789 4.38781 12.6667 7.33333 12.6667Z"
                fill="none" stroke-linecap="round" stroke-linejoin="round" />
            <path d="M13.9996 13.9996L11.0996 11.0996" fill="none" stroke-linecap="round"
                stroke-linejoin="round" />
        </symbol>
        <symbol id="icon-logo" viewBox="0 0 32 32">
            <!-- <path d="M26.427 2.667h-20.853c-1.605 0-2.907 1.301-2.907 2.907v20.853c0 1.605
            1.302 2.907 2.907 2.907h20.853c1.605 0 2.907-1.302
            2.907-2.907v-20.853c0-1.605-1.302-2.907-2.907-2.907zM9.334 2.667v26.666M22.666
            2.667v26.666M2.667 16h26.666M2.667 9.334h6.666M2.667 22.666h6.666M22.666
            22.666h6.667M22.666 9.334h6.667"></path> -->
            <path fill="none" stroke-linejoin="round"
                stroke-linecap="round" stroke-miterlimit="4" stroke-width="2"
                d="M26.427 2.667h-20.854c-1.605 0-2.906 1.301-2.907 2.906v20.854c0.001 1.605 1.302 2.906 2.907 2.906h20.854c1.605-0.001 2.905-1.301 2.906-2.906v-20.854c-0.001-1.605-1.301-2.905-2.906-2.906h-0zM9.334 2.667v26.666M22.666 2.667v26.666M2.667 16h26.666M2.667 9.333h6.666M2.667 22.667h6.666M22.666 22.667h6.667M22.666 9.333h6.667">
            </path>
        </symbol>
        <symbol id="icon-filter" viewBox="0 0 24 24">
            <path
                d="M19.845 4l-6.609 7.814c-0.147 0.173-0.236 0.399-0.236 0.646v6.922l-2-1v-5.922c0.001-0.227-0.077-0.457-0.236-0.646l-6.609-7.814zM22 2h-20c-0.552 0-1 0.448-1 1 0 0.247 0.089 0.473 0.236 0.646l7.764 9.18v6.174c0 0.389 0.222 0.727 0.553 0.894l4 2c0.494 0.247 1.095 0.047 1.342-0.447 0.072-0.146 0.106-0.301 0.105-0.447v-8.174l7.764-9.18c0.357-0.422 0.304-1.053-0.118-1.409-0.189-0.16-0.419-0.238-0.646-0.237z"></path>
        </symbol>
        <symbol id="icon-close" viewBox="0 0 32 32">
            <path d="M8.533 8.533l14.933 14.933M8.533 23.467l14.933-14.933"></path>
        </symbol>
        <symbol id="icon-sun" viewBox="0 0 24 24">
            <path
                d="M12 6.934l1-2.934c.072-.213.078-.452 0-.682-.188-.553-.789-.848-1.341-.659-.553.189-.847.788-.659 1.341l1 2.934zM4 11c-.213-.072-.452-.078-.682 0-.553.188-.848.789-.659 1.341.189.553.788.847 1.341.659l2.934-1-2.934-1zM12 17.066l-1 2.934c-.072.213-.078.452 0 .682.188.553.789.848 1.341.659.553-.189.847-.788.659-1.341l-1-2.934zM21.341 11.657c-.188-.553-.788-.848-1.341-.659l-2.934 1 2.934 1c.213.072.452.078.682 0 .552-.188.847-.789.659-1.341zM5.636 7.05l2.781 1.367-1.367-2.781c-.1-.202-.265-.375-.482-.482-.524-.258-1.157-.042-1.415.482-.257.523-.041 1.157.483 1.414zM5.153 17.432c-.257.523-.041 1.156.482 1.414.523.257 1.157.041 1.414-.482l1.367-2.781-2.781 1.367c-.201.099-.374.263-.482.482zM18.363 16.949l-2.781-1.367 1.367 2.781c.1.202.264.375.482.482.523.257 1.156.041 1.414-.482s.042-1.157-.482-1.414zM18.844 6.566c.258-.524.042-1.157-.481-1.415-.523-.257-1.157-.041-1.414.482l-1.369 2.783 2.782-1.368c.202-.1.375-.264.482-.482zM12 7.5c-2.481 0-4.5 2.019-4.5 4.5s2.019 4.5 4.5 4.5 4.5-2.019 4.5-4.5-2.019-4.5-4.5-4.5z" />
        </symbol>
        <symbol id="icon-moon" viewBox="0 0 32 32">
            <path
                d="M18.214 11.762l-1.214 3.238-1.214-3.238-2.286-0.762 2.286-0.762 1.214-3.238 1.214 3.238 2.286 0.762-2.286 0.762zM22.214 18.238l-1.214-3.238-1.214 3.238-2.286 0.762 2.286 0.762 1.214 3.238 1.214-3.238 2.286-0.762-2.286-0.762zM14.836 22.331c-0.597 2.392-2.76 4.163-5.336 4.163-3.038 0-5.5-2.462-5.5-5.5 0-2.577 1.772-4.739 4.163-5.337 0.351-0.088 0.716-0.142 1.091-0.158-0.165 0.468-0.254 0.971-0.254 1.495 0 2.485 2.015 4.5 4.5 4.5 0.524 0 1.027-0.090 1.495-0.254-0.016 0.375-0.070 0.739-0.158 1.091v0zM26.867 12.429l1.633 0.571-1.633 0.571-0.867 2.429-0.867-2.429-1.633-0.571 1.633-0.571 0.867-2.429 0.867 2.429z"></path>
        </symbol>
        <symbol id="icon-github" viewBox="0 0 32 32">
            <path fill="$blackColor"
                d="M16 0.395c-8.836 0-16 7.163-16 16 0 7.069 4.585 13.067 10.942 15.182 0.8 0.148 1.094-0.347 1.094-0.77 0-0.381-0.015-1.642-0.022-2.979-4.452 0.968-5.391-1.888-5.391-1.888-0.728-1.849-1.776-2.341-1.776-2.341-1.452-0.993 0.11-0.973 0.11-0.973 1.606 0.113 2.452 1.649 2.452 1.649 1.427 2.446 3.743 1.739 4.656 1.33 0.143-1.034 0.558-1.74 1.016-2.14-3.554-0.404-7.29-1.777-7.29-7.907 0-1.747 0.625-3.174 1.649-4.295-0.166-0.403-0.714-2.030 0.155-4.234 0 0 1.344-0.43 4.401 1.64 1.276-0.355 2.645-0.532 4.005-0.539 1.359 0.006 2.729 0.184 4.008 0.539 3.054-2.070 4.395-1.64 4.395-1.64 0.871 2.204 0.323 3.831 0.157 4.234 1.026 1.12 1.647 2.548 1.647 4.295 0 6.145-3.743 7.498-7.306 7.895 0.574 0.497 1.085 1.47 1.085 2.963 0 2.141-0.019 3.864-0.019 4.391 0 0.426 0.288 0.925 1.099 0.768 6.354-2.118 10.933-8.113 10.933-15.18 0-8.837-7.164-16-16-16z"></path>
        </symbol>
        <symbol id="icon-password" viewBox="0 0 32 32">
            <path
                d="M24.261 11.539h-0.521v-3.801c0-4.267-3.472-7.739-7.739-7.739s-7.739 3.472-7.739 7.739v3.801h-0.522c-1.52 0-2.757 1.237-2.757 2.757v14.946c0 1.52 1.237 2.757 2.757 2.757h16.521c1.52 0 2.757-1.237 2.757-2.757v-14.946c0-1.52-1.237-2.757-2.757-2.757zM10.624 7.739c0-2.964 2.412-5.375 5.376-5.375s5.376 2.411 5.376 5.375v3.801h-10.752v-3.801zM24.654 29.243c0 0.213-0.18 0.394-0.394 0.394h-16.521c-0.213 0-0.394-0.18-0.394-0.394v-14.946c0-0.213 0.18-0.394 0.394-0.394h16.521c0.213 0 0.394 0.18 0.394 0.394v14.946z"></path>
            <path
                d="M16 18.326c-0.653 0-1.182 0.529-1.182 1.182v4.524c0 0.653 0.529 1.182 1.182 1.182s1.182-0.529 1.182-1.182v-4.524c0-0.653-0.529-1.182-1.182-1.182z"></path>
        </symbol>
        <symbol id="icon-email" viewBox="0 0 44 32">
            <path
                d="M2.539 0h39.174c1.393 0.014 2.517 1.145 2.521 2.538v26.923c0 0.005 0 0.012 0 0.018 0 0.531-0.164 1.024-0.445 1.43l0.005-0.008c-0.055 0.141-0.136 0.261-0.237 0.36l-0 0c-0.068 0.065-0.146 0.121-0.232 0.163l-0.005 0.002c-0.435 0.369-1.003 0.594-1.624 0.594h-39.156c-1.387-0.014-2.507-1.134-2.521-2.519v-26.963c0.004-1.394 1.128-2.525 2.519-2.539h0.001zM2.431 28.392l13.245-13.764-13.245-11.192v24.956zM17.671 16.346l-14.153 13.706h37.092l-13.522-13.706-3.961 3.317c-0.167 0.14-0.384 0.224-0.621 0.224s-0.454-0.085-0.623-0.226l0.002 0.001-4.213-3.317zM29.051 14.603l12.77 13.901v-25.19l-12.77 11.29zM3.677 1.948l18.791 15.229 17.963-15.229z"></path>
        </symbol>
        <symbol id="icon-user" viewBox="0 0 20 20">
            <path
                d="M5 5c0-2.761 2.239-5 5-5s5 2.239 5 5v0 2c0 2.761-2.239 5-5 5s-5-2.239-5-5v0-2zM0 16.68c2.86-1.685 6.301-2.68 9.974-2.68 0.009 0 0.018 0 0.027 0h-0.001c3.64 0 7.060 0.97 10 2.68v3.32h-20v-3.32z"></path>
        </symbol>
        <symbol id="icon-exit" viewBox="0 0 32 32">
            <path
                d="M24 20v-4h-10v-4h10v-4l6 6zM22 18v8h-10v6l-12-6v-26h22v10h-2v-8h-16l8 4v18h8v-6z"></path>
        </symbol>
        <symbol id="icon-circle-right" viewBox="0 0 32 32">
            <path
                d="M16 0c-8.837 0-16 7.163-16 16s7.163 16 16 16 16-7.163 16-16-7.163-16-16-16zM16 29c-7.18 0-13-5.82-13-13s5.82-13 13-13 13 5.82 13 13-5.82 13-13 13z"></path>
            <path d="M11.086 22.086l2.829 2.829 8.914-8.914-8.914-8.914-2.828 2.828 6.086 6.086z"></path>
        </symbol>
        <symbol id="icon-circle-left" viewBox="0 0 32 32">
            <path
                d="M16 32c8.837 0 16-7.163 16-16s-7.163-16-16-16-16 7.163-16 16 7.163 16 16 16zM16 3c7.18 0 13 5.82 13 13s-5.82 13-13 13-13-5.82-13-13 5.82-13 13-13z"></path>
            <path d="M20.914 9.914l-2.829-2.829-8.914 8.914 8.914 8.914 2.828-2.828-6.086-6.086z"></path>
        </symbol>
    </defs>
</svg>