<svg aria-hidden="true" style="position: absolute; width: 0; height: 0; overflow: hidden;"
    version="1.1" xmlns="http://www.w3.org/2000/svg" xmlns:xlink="http://www.w3.org/1999/xlink">
    <defs>
        <symbol id="icon-arrow-right" viewBox="0 0 32 32">
            <path d="M6.666 16h18.668M16 25.334l9.332-9.334-9.332-9.334"></path>
        </symbol>
        <symbol id="icon-arrow-left" viewBox="0 0 32 32">
            <path d="M25.334 16h-18.668M16 25.334l-9.334-9.334 9.334-9.334"></path>
        </symbol>
        <!-- <symbol id="icon-search" viewBox="0 0 32 32"> -->
        <!-- <path d="M14.666 25.334c5.891 0 10.667-4.776
        10.667-10.667s-4.776-10.667-10.667-10.667v0c-5.891 0-10.667 4.776-10.667 10.667s4.776 10.667
        10.667 10.667v0zM28 28l-5.8-5.8"></path> -->
        <symbol id="icon-search" viewBox="0 0 16 16">
            <path
                d="M7.33333 12.6667C10.2789 12.6667 12.6667 10.2789 12.6667 7.33333C12.6667 4.38781 10.2789 2 7.33333 2C4.38781 2 2 4.38781 2 7.33333C2 10.2789 4.38781 12.6667 7.33333 12.6667Z"
                fill="none" stroke-linecap="round" stroke-linejoin="round" />
            <path d="M13.9996 13.9996L11.0996 11.0996" fill="none" stroke-linecap="round"
                stroke-linejoin="round" />
        </symbol>
        <symbol id="icon-logo" viewBox="0 0 32 32">
            <!-- <path d="M26.427 2.667h-20.853c-1.605 0-2.907 1.301-2.907 2.907v20.853c0 1.605
            1.302 2.907 2.907 2.907h20.853c1.605 0 2.907-1.302
            2.907-2.907v-20.853c0-1.605-1.302-2.907-2.907-2.907zM9.334 2.667v26.666M22.666
            2.667v26.666M2.667 16h26.666M2.667 9.334h6.666M2.667 22.666h6.666M22.666
            22.666h6.667M22.666 9.334h6.667"></path> -->
            <path fill="none" stroke-linejoin="round"
                stroke-linecap="round" stroke-miterlimit="4" stroke-width="2"
                d="M26.427 2.667h-20.854c-1.605 0-2.906 1.301-2.907 2.906v20.854c0.001 1.605 1.302 2.906 2.907 2.906h20.854c1.605-0.001 2.905-1.301 2.906-2.906v-20.854c-0.001-1.605-1.301-2.905-2.906-2.906h-0zM9.334 2.667v26.666M22.666 2.667v26.666M2.667 16h26.666M2.667 9.333h6.666M2.667 22.667h6.666M22.666 22.667h6.667M22.666 9.333h6.667">
            </path>
        </symbol>
        <symbol id="icon-filter" viewBox="0 0 24 24">
            <path
                d="M19.845 4l-6.609 7.814c-0.147 0.173-0.236 0.399-0.236 0.646v6.922l-2-1v-5.922c0.001-0.227-0.077-0.457-0.236-0.646l-6.609-7.814zM22 2h-20c-0.552 0-1 0.448-1 1 0 0.247 0.089 0.473 0.236 0.646l7.764 9.18v6.174c0 0.389 0.222 0.727 0.553 0.894l4 2c0.494 0.247 1.095 0.047 1.342-0.447 0.072-0.146 0.106-0.301 0.105-0.447v-8.174l7.764-9.18c0.357-0.422 0.304-1.053-0.118-1.409-0.189-0.16-0.419-0.238-0.646-0.237z"></path>
        </symbol>
        <symbol id="icon-close" viewBox="0 0 32 32">
            <path d="M8.533 8.533l14.933 14.933M8.533 23.467l14.933-14.933"></path>
        </symbol>
        <symbol id="icon-sun" viewBox="0 0 24 24">
            <path
                d="M12 6.934l1-2.934c.072-.213.078-.452 0-.682-.188-.553-.789-.848-1.341-.659-.553.189-.847.788-.659 1.341l1 2.934zM4 11c-.213-.072-.452-.078-.682 0-.553.188-.848.789-.659 1.341.189.553.788.847 1.341.659l2.934-1-2.934-1zM12 17.066l-1 2.934c-.072.213-.078.452 0 .682.188.553.789.848 1.341.659.553-.189.847-.788.659-1.341l-1-2.934zM21.341 11.657c-.188-.553-.788-.848-1.341-.659l-2.934 1 2.934 1c.213.072.452.078.682 0 .552-.188.847-.789.659-1.341zM5.636 7.05l2.781 1.367-1.367-2.781c-.1-.202-.265-.375-.482-.482-.524-.258-1.157-.042-1.415.482-.257.523-.041 1.157.483 1.414zM5.153 17.432c-.257.523-.041 1.156.482 1.414.523.257 1.157.041 1.414-.482l1.367-2.781-2.781 1.367c-.201.099-.374.263-.482.482zM18.363 16.949l-2.781-1.367 1.367 2.781c.1.202.264.375.482.482.523.257 1.156.041 1.414-.482s.042-1.157-.482-1.414zM18.844 6.566c.258-.524.042-1.157-.481-1.415-.523-.257-1.157-.041-1.414.482l-1.369 2.783 2.782-1.368c.202-.1.375-.264.482-.482zM12 7.5c-2.481 0-4.5 2.019-4.5 4.5s2.019 4.5 4.5 4.5 4.5-2.019 4.5-4.5-2.019-4.5-4.5-4.5z" />
        </symbol>
        <symbol id="icon-moon" viewBox="0 0 32 32">
            <path
                d="M18.214 11.762l-1.214 3.238-1.214-3.238-2.286-0.762 2.286-0.762 1.214-3.238 1.214 3.238 2.286 0.762-2.286 0.762zM22.214 18.238l-1.214-3.238-1.214 3.238-2.286 0.762 2.286 0.762 1.214 3.238 1.214-3.238 2.286-0.762-2.286-0.762zM14.836 22.331c-0.597 2.392-2.76 4.163-5.336 4.163-3.038 0-5.5-2.462-5.5-5.5 0-2.577 1.772-4.739 4.163-5.337 0.351-0.088 0.716-0.142 1.091-0.158-0.165 0.468-0.254 0.971-0.254 1.495 0 2.485 2.015 4.5 4.5 4.5 0.524 0 1.027-0.090 1.495-0.254-0.016 0.375-0.070 0.739-0.158 1.091v0zM26.867 12.429l1.633 0.571-1.633 0.571-0.867 2.429-0.867-2.429-1.633-0.571 1.633-0.571 0.867-2.429 0.867 2.429z"></path>
        </symbol>
        <symbol id="icon-github" viewBox="0 0 32 32">
            <path fill="$blackColor"
                d="M16 0.395c-8.836 0-16 7.163-16 16 0 7.069 4.585 13.067 10.942 15.182 0.8 0.148 1.094-0.347 1.094-0.77 0-0.381-0.015-1.642-0.022-2.979-4.452 0.968-5.391-1.888-5.391-1.888-0.728-1.849-1.776-2.341-1.776-2.341-1.452-0.993 0.11-0.973 0.11-0.973 1.606 0.113 2.452 1.649 2.452 1.649 1.427 2.446 3.743 1.739 4.656 1.33 0.143-1.034 0.558-1.74 1.016-2.14-3.554-0.404-7.29-1.777-7.29-7.907 0-1.747 0.625-3.174 1.649-4.295-0.166-0.403-0.714-2.030 0.155-4.234 0 0 1.344-0.43 4.401 1.64 1.276-0.355 2.645-0.532 4.005-0.539 1.359 0.006 2.729 0.184 4.008 0.539 3.054-2.070 4.395-1.64 4.395-1.64 0.871 2.204 0.323 3.831 0.157 4.234 1.026 1.12 1.647 2.548 1.647 4.295 0 6.145-3.743 7.498-7.306 7.895 0.574 0.497 1.085 1.47 1.085 2.963 0 2.141-0.019 3.864-0.019 4.391 0 0.426 0.288 0.925 1.099 0.768 6.354-2.118 10.933-8.113 10.933-15.18 0-8.837-7.164-16-16-16z"></path>
        </symbol>
        <symbol id="icon-password" viewBox="0 0 32 32">
            <path
                d="M24.261 11.539h-0.521v-3.801c0-4.267-3.472-7.739-7.739-7.739s-7.739 3.472-7.739 7.739v3.801h-0.522c-1.52 0-2.757 1.237-2.757 2.757v14.946c0 1.52 1.237 2.757 2.757 2.757h16.521c1.52 0 2.757-1.237 2.757-2.757v-14.946c0-1.52-1.237-2.757-2.757-2.757zM10.624 7.739c0-2.964 2.412-5.375 5.376-5.375s5.376 2.411 5.376 5.375v3.801h-10.752v-3.801zM24.654 29.243c0 0.213-0.18 0.394-0.394 0.394h-16.521c-0.213 0-0.394-0.18-0.394-0.394v-14.946c0-0.213 0.18-0.394 0.394-0.394h16.521c0.213 0 0.394 0.18 0.394 0.394v14.946z"></path>
            <path
                d="M16 18.326c-0.653 0-1.182 0.529-1.182 1.182v4.524c0 0.653 0.529 1.182 1.182 1.182s1.182-0.529 1.182-1.182v-4.524c0-0.653-0.529-1.182-1.182-1.182z"></path>
        </symbol>
        <symbol id="icon-email" viewBox="0 0 44 32">
            <path
                d="M2.539 0h39.174c1.393 0.014 2.517 1.145 2.521 2.538v26.923c0 0.005 0 0.012 0 0.018 0 0.531-0.164 1.024-0.445 1.43l0.005-0.008c-0.055 0.141-0.136 0.261-0.237 0.36l-0 0c-0.068 0.065-0.146 0.121-0.232 0.163l-0.005 0.002c-0.435 0.369-1.003 0.594-1.624 0.594h-39.156c-1.387-0.014-2.507-1.134-2.521-2.519v-26.963c0.004-1.394 1.128-2.525 2.519-2.539h0.001zM2.431 28.392l13.245-13.764-13.245-11.192v24.956zM17.671 16.346l-14.153 13.706h37.092l-13.522-13.706-3.961 3.317c-0.167 0.14-0.384 0.224-0.621 0.224s-0.454-0.085-0.623-0.226l0.002 0.001-4.213-3.317zM29.051 14.603l12.77 13.901v-25.19l-12.77 11.29zM3.677 1.948l18.791 15.229 17.963-15.229z"></path>
        </symbol>
        <symbol id="icon-person" viewBox="0 0 32 32">
            <path
                d="M23.863 7.863c0-4.342-3.517-7.863-7.863-7.863-4.342 0-7.863 3.521-7.863 7.863s3.521 7.863 7.863 7.863c4.346 0 7.863-3.521 7.863-7.863zM10.103 8.033c0 0-0.227-2.23 1.38-3.931 1.131 1.133 4.518 3.931 10.415 3.931 0 3.252-2.645 5.897-5.897 5.897s-5.897-2.645-5.897-5.897z"></path>
            <path
                d="M2.504 21.775v7.976c0 1.243 1.008 2.249 2.249 2.249h22.493c1.243 0 2.249-1.006 2.249-2.249v-7.976c0-2.484-2.012-4.498-4.498-4.498h-3.988c-0.282 0-0.637 0.19-0.793 0.425l-3.932 5.558c-0.156 0.235-0.41 0.235-0.566 0l-3.932-5.558c-0.156-0.235-0.512-0.425-0.793-0.425h-3.988c-2.482 0-4.498 2.014-4.498 4.499z"></path>
        </symbol>
        <symbol id="icon-user" viewBox="0 0 20 20">
            <path
                d="M5 5c0-2.761 2.239-5 5-5s5 2.239 5 5v0 2c0 2.761-2.239 5-5 5s-5-2.239-5-5v0-2zM0 16.68c2.86-1.685 6.301-2.68 9.974-2.68 0.009 0 0.018 0 0.027 0h-0.001c3.64 0 7.060 0.97 10 2.68v3.32h-20v-3.32z"></path>
        </symbol>
        <symbol id="icon-circle-right" viewBox="0 0 32 32">
<path d="M16 0c-8.837 0-16 7.163-16 16s7.163 16 16 16 16-7.163 16-16-7.163-16-16-16zM16 29c-7.18 0-13-5.82-13-13s5.82-13 13-13 13 5.82 13 13-5.82 13-13 13z"></path>
<path d="M11.086 22.086l2.829 2.829 8.914-8.914-8.914-8.914-2.828 2.828 6.086 6.086z"></path>
</symbol>
<symbol id="icon-circle-left" viewBox="0 0 32 32">
<path d="M16 32c8.837 0 16-7.163 16-16s-7.163-16-16-16-16 7.163-16 16 7.163 16 16 16zM16 3c7.18 0 13 5.82 13 13s-5.82 13-13 13-13-5.82-13-13 5.82-13 13-13z"></path>
<path d="M20.914 9.914l-2.829-2.829-8.914 8.914 8.914 8.914 2.828-2.828-6.086-6.086z"></path>
</symbol>
    </defs>
</svg>