<?xml version="1.0" standalone="no"?>
<!DOCTYPE svg PUBLIC "-//W3C//DTD SVG 20010904//EN"
 "http://www.w3.org/TR/2001/REC-SVG-20010904/DTD/svg10.dtd">
<svg version="1.0" xmlns="http://www.w3.org/2000/svg"
 width="512.000000pt" height="512.000000pt" viewBox="0 0 512.000000 512.000000"
 preserveAspectRatio="xMidYMid meet">
<metadata>
Created by potrace 1.14, written by Peter Selinger 2001-2017
</metadata>
<g transform="translate(0.000000,512.000000) scale(0.100000,-0.100000)"
fill="#000000" stroke="none">
<path d="M1805 4946 c-109 -26 -224 -109 -285 -202 l-26 -42 -40 24 c-147 90
-330 95 -483 14 -108 -58 -185 -152 -228 -279 l-21 -65 -72 1 c-111 2 -175
-21 -269 -96 -170 -135 -186 -407 -33 -570 l52 -56 0 -76 0 -76 -37 -7 c-74
-11 -142 -63 -182 -135 -16 -29 -27 -219 -17 -275 8 -44 45 -66 110 -66 25 0
47 -3 49 -7 3 -5 8 -57 11 -118 4 -60 9 -130 11 -155 8 -90 17 -216 20 -285 3
-38 7 -97 9 -130 3 -33 8 -100 12 -150 3 -49 7 -110 9 -135 3 -25 7 -88 10
-140 4 -52 8 -111 10 -130 2 -19 6 -84 10 -145 3 -60 8 -126 10 -145 2 -19 7
-80 10 -135 3 -55 7 -120 10 -145 2 -25 7 -83 10 -130 16 -245 20 -265 60
-280 16 -6 204 -10 471 -10 l444 0 0 -213 c0 -245 8 -291 65 -348 76 -78 23
-74 833 -77 474 -2 729 1 741 8 11 5 41 53 68 105 26 52 50 95 53 95 3 0 26
-41 50 -91 31 -63 53 -95 72 -105 22 -12 147 -14 731 -14 506 0 714 3 738 12
53 18 104 59 136 108 l28 45 3 529 c3 614 4 605 -77 678 -27 24 -67 50 -89 56
-28 9 -203 12 -632 12 l-592 0 7 123 c4 67 8 142 10 167 1 25 5 88 9 140 3 52
8 127 11 165 3 39 7 104 10 145 3 41 7 120 11 175 3 55 7 123 9 150 2 28 7
100 10 160 4 61 8 128 10 150 2 22 4 45 4 51 1 7 29 13 72 16 100 5 108 18
109 159 0 143 -17 196 -83 255 -27 24 -55 44 -63 44 -10 0 -14 16 -14 63 0 50
5 70 24 98 108 159 46 385 -128 465 -47 21 -56 30 -57 52 -1 54 -10 88 -38
147 -42 90 -100 148 -188 192 -70 35 -82 37 -167 38 -126 0 -231 -44 -300
-126 -28 -33 -27 -33 -96 20 -58 44 -152 87 -215 97 -28 4 -53 9 -57 10 -5 1
-21 2 -36 3 -25 1 -30 6 -42 53 -60 237 -330 393 -575 334z"/>
</g>
</svg>
